<?xml version="1.0" encoding="utf-8"?>
<!-- Generator: Adobe Illustrator 21.0.0, SVG Export Plug-In . SVG Version: 6.00 Build 0)  -->
<svg version="1.1" id="Layer_1" xmlns="http://www.w3.org/2000/svg" xmlns:xlink="http://www.w3.org/1999/xlink" x="0px" y="0px"
	 viewBox="0 0 70 70" style="enable-background:new 0 0 70 70;" xml:space="preserve">
<style type="text/css">
	.st0{fill:#FFFFFF;}
</style>
<g id="Group_237" transform="translate(0 -25.995)">
	<path id="Path_438" class="st0" d="M68.2,43.1v-3.8c0-0.2,0-0.3-0.1-0.5l-3.9-10.4C64,28,63.6,27.7,63,27.7H7c-0.5,0-1,0.3-1.2,0.8
		L1.9,38.9c-0.1,0.1-0.1,0.3-0.1,0.5v3.8c0,2.2,1.3,4.1,3.4,4.9v32c0,2.1,1.7,3.9,3.9,3.9h18.6l-0.9,7.8h-4c-0.7,0-1.3,0.6-1.3,1.3
		c0,0.7,0.6,1.3,1.3,1.3H46c0.7,0,1.3-0.6,1.3-1.3c0-0.7-0.6-1.3-1.3-1.3h-4L41,84h13.5l0.6,1.7c0.3,1.2,1.5,1.8,2.7,1.5
		c0.4-0.1,0.7-0.3,0.9-0.6l1-1l2.2,2.2c0.9,0.8,2.2,0.8,3.1,0l2.5-2.5c0.8-0.9,0.8-2.2,0-3.1l-2.2-2.2l1-1c0.9-0.9,0.8-2.2,0-3.1
		c-0.2-0.2-0.5-0.4-0.8-0.5l-0.7-0.2V48.1C66.9,47.3,68.2,45.3,68.2,43.1L68.2,43.1z M65.6,39.6v3.6c0,1.5-1.2,2.7-2.7,2.7
		c-1.5,0-2.7-1.2-2.7-2.7v-3.8c0-0.1,0-0.2,0-0.4l-2.5-8.7h4.4L65.6,39.6z M12.4,39.5l2.6-9.3h4.5l-1.7,8.8c0,0.1,0,0.2,0,0.2v3.8
		c0,1.5-1.2,2.7-2.7,2.7c-1.5,0-2.7-1.2-2.7-2.7L12.4,39.5L12.4,39.5z M20.3,39.5l1.7-9.2h4.5l-0.8,9c0,0,0,0.1,0,0.1v3.8
		c0,1.5-1.2,2.7-2.7,2.7c-1.5,0-2.7-1.2-2.7-2.7L20.3,39.5z M28.3,39.4l0.9-9.1h4.5v12.9c0,1.5-1.2,2.7-2.7,2.7
		c-1.5,0-2.7-1.2-2.7-2.7L28.3,39.4z M36.3,30.3h4.5l0.9,9.1v3.7c0,1.5-1.2,2.7-2.7,2.7c-1.5,0-2.7-1.2-2.7-2.7L36.3,30.3z
		 M44.3,39.2l-0.8-9h4.5l1.7,9.2v3.7c0,1.5-1.2,2.7-2.7,2.7c-1.5,0-2.7-1.2-2.7-2.7v-3.8C44.3,39.3,44.3,39.3,44.3,39.2L44.3,39.2z
		 M52.2,39.1l-1.7-8.8H55l2.6,9.3v3.6c0,1.5-1.2,2.7-2.7,2.7c-1.5,0-2.7-1.2-2.7-2.7v-3.8C52.3,39.3,52.2,39.2,52.2,39.1L52.2,39.1z
		 M4.4,39.6l3.5-9.3h4.4L9.8,39c0,0.1,0,0.2,0,0.4v3.8c0,1.5-1.2,2.7-2.7,2.7c-1.5,0-2.7-1.2-2.7-2.7c0,0,0,0,0,0L4.4,39.6z
		 M39.4,91.7H29.3l0.9-7.8h8.2L39.4,91.7z M65.4,83.8l-1.9,1.9l-2.8-2.8c-0.5-0.5-1.3-0.5-1.8,0c0,0,0,0,0,0l-1.4,1.4l-3.8-10.4
		L64,77.7l-1.4,1.4c-0.5,0.5-0.5,1.3,0,1.8c0,0,0,0,0,0L65.4,83.8z M53.6,71.1L53.6,71.1c-1.2-0.4-2.4,0.2-2.8,1.4
		c-0.2,0.4-0.2,0.9,0,1.4l0,0l0.8,2.3H40.2c-0.7,0-1.3,0.6-1.3,1.3c0,0.7,0.6,1.3,1.3,1.3h12.5l1,2.6H9.1c-0.7,0-1.3-0.6-1.3-1.3
		v-1.3h20.8c0.7,0,1.3-0.6,1.3-1.3s-0.6-1.3-1.3-1.3H7.8V48.4c1.3-0.2,2.5-0.8,3.3-1.8c1.9,2.2,5.2,2.4,7.4,0.5
		c0.2-0.2,0.4-0.3,0.5-0.5c1.9,2.2,5.2,2.4,7.4,0.5c0.2-0.2,0.4-0.3,0.5-0.5c1.9,2.2,5.2,2.4,7.4,0.5c0.2-0.2,0.4-0.3,0.5-0.5
		c1.9,2.2,5.2,2.4,7.4,0.5c0.2-0.2,0.4-0.3,0.5-0.5c1.9,2.2,5.2,2.4,7.4,0.5c0.2-0.2,0.4-0.3,0.5-0.5c1.9,2.2,5.2,2.4,7.4,0.5
		c0.2-0.2,0.4-0.3,0.5-0.5c0.8,1,2,1.6,3.3,1.8v25.9L53.6,71.1z"/>
	<path id="Path_439" class="st0" d="M37.5,53c-0.9,0-1.6,0.7-1.6,1.6v0v9.4c0,0.9-0.7,1.6-1.6,1.6s-1.6-0.7-1.6-1.6v-9.4
		c0-0.9-0.7-1.6-1.6-1.6c-0.9,0-1.6,0.7-1.6,1.6v9.4c0,2.6,2.1,4.7,4.7,4.7c2.6,0,4.7-2.1,4.7-4.7v-9.4C39.1,53.7,38.4,53,37.5,53
		C37.5,53,37.5,53,37.5,53z"/>
	<path id="Path_440" class="st0" d="M22.6,53h-3.1c-0.9,0-1.6,0.7-1.6,1.6v0v12.5c0,0.9,0.7,1.6,1.6,1.6h0h3.1
		c2.6,0,4.7-2.1,4.7-4.7c0-1.2-0.4-2.3-1.2-3.1c1.7-1.9,1.6-4.9-0.4-6.6C24.9,53.4,23.8,53,22.6,53z M22.6,56.1
		c0.9,0,1.6,0.7,1.6,1.6s-0.7,1.6-1.6,1.6H21v-3.1H22.6z M22.6,65.5H21v-3.1h1.6c0.9,0,1.6,0.7,1.6,1.6
		C24.2,64.8,23.5,65.5,22.6,65.5z"/>
	<path id="Path_441" class="st0" d="M49.2,53c-0.9,0-1.6,0.7-1.6,1.6v0V59c0,0.9-0.7,1.6-1.6,1.6c-0.9,0-1.6-0.7-1.6-1.6v-4.5
		c0-0.9-0.7-1.6-1.6-1.6c-0.9,0-1.6,0.7-1.6,1.6l0,0V59c0,2,1.3,3.8,3.1,4.4v3.6c0,0.9,0.7,1.6,1.6,1.6c0.9,0,1.6-0.7,1.6-1.6v-3.6
		c1.9-0.7,3.1-2.4,3.1-4.4v-4.5C50.8,53.7,50.1,53,49.2,53C49.2,53,49.2,53,49.2,53z"/>
	<path id="Path_442" class="st0" d="M34.4,76.2L34.4,76.2c-0.7,0-1.3,0.6-1.3,1.3s0.6,1.3,1.3,1.3c0.7,0,1.3-0.6,1.3-1.3
		C35.6,76.7,35.1,76.2,34.4,76.2L34.4,76.2z"/>
</g>
</svg>
