<svg xmlns="http://www.w3.org/2000/svg" width="166.908" height="156.73" viewBox="0 0 166.908 156.73">
  <g id="Group_240" data-name="Group 240" transform="translate(-16 -30.637)">
    <path id="Path_459" data-name="Path 459" d="M94.6,386.032a15.16,15.16,0,0,0-8.081-10.547L68.8,367.919v-.463a31.564,31.564,0,0,1-26.737,0v.463l-17.724,7.566A15.166,15.166,0,0,0,16,387.795v19.271H94.854V387.795A14.079,14.079,0,0,0,94.6,386.032Z" transform="translate(0 -219.699)" fill="#50a6ea"/>
    <path id="Path_460" data-name="Path 460" d="M34.767,375.485l13.682-5.842a31.512,31.512,0,0,1-6.39-2.188v.463l-17.724,7.567A15.166,15.166,0,0,0,16,387.794v19.271H26.432V387.794a15.166,15.166,0,0,1,8.335-12.309Z" transform="translate(0 -219.698)" fill="#72bcef"/>
    <path id="Path_461" data-name="Path 461" d="M286.86,49.047H192.988A6.954,6.954,0,0,0,186.033,56V75.693a28.725,28.725,0,0,1,7.914,19.834v11.005h.682a5.448,5.448,0,0,1,4.875,4.152,7.245,7.245,0,0,1-5.31,8.762c-.154.038-.309.071-.466.1v3.575a28.127,28.127,0,0,1-7.7,19.372l0,0v20.439l11.391,4.861a15.161,15.161,0,0,1,8.081,10.547H286.86a6.953,6.953,0,0,0,6.954-6.95V56a6.954,6.954,0,0,0-6.954-6.954Z" transform="translate(-110.906 -12.008)" fill="#e5f5fd"/>
    <circle id="Ellipse_21" data-name="Ellipse 21" cx="20.863" cy="20.863" r="20.863" transform="translate(89.672 58.9)" fill="#49c160"/>
    <path id="Path_462" data-name="Path 462" d="M234.794,132.774A20.87,20.87,0,0,1,252.18,112.2a20.863,20.863,0,1,0,0,41.139A20.866,20.866,0,0,1,234.794,132.774Z" transform="translate(-138.167 -53.01)" fill="#5ae070"/>
    <path id="Path_463" data-name="Path 463" d="M100.7,139.688v.32s-24.622,4.34-41.132-10.373a86.9,86.9,0,0,1-10.2.257L48.609,142.5a.583.583,0,0,1-.848.473l-3.408-1.749a2.361,2.361,0,0,1-1.273-1.93V128.683a28.812,28.812,0,0,1,57.625,0Z" transform="translate(-17.664 -45.164)" fill="#4a5160"/>
    <path id="Path_464" data-name="Path 464" d="M58.474,108.3a28.722,28.722,0,0,1,16.92-8.226,28.818,28.818,0,0,0-32.314,28.6v10.616a2.361,2.361,0,0,0,1.273,1.93l3.408,1.749a.584.584,0,0,0,.786-.252.592.592,0,0,0,.063-.221S47.111,119.658,58.474,108.3Z" transform="translate(-17.664 -45.15)" fill="#58606d"/>
    <path id="Path_465" data-name="Path 465" d="M117.677,332.247V344.49a31.567,31.567,0,0,1-26.737,0V333.158A28.265,28.265,0,0,0,117.677,332.247Z" transform="translate(-48.881 -196.733)" fill="#efc597"/>
    <path id="Path_466" data-name="Path 466" d="M97.895,346.2v-8.96a28.066,28.066,0,0,1-6.954-2.372V346.2a31.562,31.562,0,0,0,16.846,2.778A31.532,31.532,0,0,1,97.895,346.2Z" transform="translate(-48.881 -198.442)" fill="#d8ad82"/>
    <path id="Path_467" data-name="Path 467" d="M76.972,236.5a28.235,28.235,0,0,1-42.45-24.4v-3.575A7.259,7.259,0,0,1,28.65,200.1q.04-.221.092-.439a5.452,5.452,0,0,1,4.879-4.152l.031-.007a2.355,2.355,0,0,0,1.214,1.547l3.408,1.749a.583.583,0,0,0,.848-.473l.768-12.612a86.9,86.9,0,0,0,10.2-.257C66.6,200.169,91.218,195.83,91.218,195.83v-.32H91.9a5.448,5.448,0,0,1,4.875,4.152,7.245,7.245,0,0,1-5.31,8.762c-.154.038-.31.071-.466.1V212.1a28.127,28.127,0,0,1-7.7,19.372c-.184.2-.379.4-.574.595A28.256,28.256,0,0,1,76.972,236.5Z" transform="translate(-8.177 -100.985)" fill="#ffd8b7"/>
    <path id="Path_468" data-name="Path 468" d="M57.184,256.257A28.237,28.237,0,0,1,41.47,230.942v-3.575a7.259,7.259,0,0,1-5.872-8.421q.04-.221.092-.439a5.484,5.484,0,0,1,.788-1.78l-1.619-.83a2.355,2.355,0,0,1-1.214-1.547l-.031.007a5.452,5.452,0,0,0-4.879,4.152,7.246,7.246,0,0,0,5.314,8.762q.231.057.466.1v3.575a28.225,28.225,0,0,0,28.211,28.239h.028a28.539,28.539,0,0,0,3.472-.215,28.07,28.07,0,0,1-9.042-2.711Z" transform="translate(-8.171 -119.831)" fill="#e8bc9e"/>
    <g id="Group_239" data-name="Group 239" transform="translate(93.616 61.919)">
      <path id="Path_469" data-name="Path 469" d="M414.058,225.859H398.8a2.086,2.086,0,1,1,0-4.173h15.253a2.086,2.086,0,1,1,0,4.173Z" transform="translate(-341.949 -186.536)" fill="#b9c8db"/>
      <path id="Path_470" data-name="Path 470" d="M363.36,225.859h-5.117a2.086,2.086,0,0,1,0-4.173h5.117a2.086,2.086,0,1,1,0,4.173Z" transform="translate(-315.492 -186.536)" fill="#b9c8db"/>
      <path id="Path_471" data-name="Path 471" d="M432.955,290.755h-5.179a2.086,2.086,0,1,1,0-4.173h5.179a2.086,2.086,0,0,1,0,4.173Z" transform="translate(-360.846 -228.866)" fill="#b9c8db"/>
      <path id="Path_472" data-name="Path 472" d="M355.194,290.755h-27.63a2.086,2.086,0,0,1,0-4.173h27.63a2.086,2.086,0,1,1,0,4.173Z" transform="translate(-295.481 -228.866)" fill="#b9c8db"/>
      <path id="Path_473" data-name="Path 473" d="M303.026,290.755h-1.864a2.086,2.086,0,0,1,0-4.173h1.864a2.086,2.086,0,1,1,0,4.173Z" transform="translate(-278.26 -228.866)" fill="#b9c8db"/>
      <path id="Path_474" data-name="Path 474" d="M253.127,290.755H241.3a2.086,2.086,0,0,1,0-4.173h11.829a2.086,2.086,0,0,1,0,4.173Z" transform="translate(-239.212 -228.866)" fill="#b9c8db"/>
      <path id="Path_475" data-name="Path 475" d="M420.274,350.736H408.335a2.086,2.086,0,0,1,0-4.173h11.939a2.086,2.086,0,1,1,0,4.173Z" transform="translate(-348.166 -267.99)" fill="#b9c8db"/>
      <path id="Path_476" data-name="Path 476" d="M383.986,350.736h-1.5a2.086,2.086,0,0,1,0-4.173h1.5a2.086,2.086,0,0,1,0,4.173Z" transform="translate(-331.305 -267.99)" fill="#b9c8db"/>
      <path id="Path_477" data-name="Path 477" d="M344.327,350.736H332.986a2.086,2.086,0,0,1,0-4.173h11.341a2.086,2.086,0,1,1,0,4.173Z" transform="translate(-299.018 -267.99)" fill="#b9c8db"/>
      <path id="Path_478" data-name="Path 478" d="M263.979,350.736H241.3a2.086,2.086,0,0,1,0-4.173h22.68a2.086,2.086,0,1,1,0,4.173Z" transform="translate(-239.212 -267.99)" fill="#b9c8db"/>
      <path id="Path_479" data-name="Path 479" d="M440.145,174.773H438.8a2.086,2.086,0,1,1,0-4.173h1.346a2.086,2.086,0,1,1,0,4.173Z" transform="translate(-368.036 -153.214)" fill="#b9c8db"/>
      <path id="Path_480" data-name="Path 480" d="M385.213,174.773H370.425a2.086,2.086,0,0,1,0-4.173h14.788a2.086,2.086,0,1,1,0,4.173Z" transform="translate(-323.438 -153.214)" fill="#b9c8db"/>
      <path id="Path_481" data-name="Path 481" d="M414.709,124.773H399.8a2.086,2.086,0,1,1,0-4.173h14.906a2.086,2.086,0,0,1,0,4.173Z" transform="translate(-342.601 -120.6)" fill="#b9c8db"/>
      <path id="Path_482" data-name="Path 482" d="M371.654,124.773h-1.229a2.086,2.086,0,0,1,0-4.173h1.229a2.086,2.086,0,0,1,0,4.173Z" transform="translate(-323.438 -120.6)" fill="#b9c8db"/>
    </g>
    <path id="Path_483" data-name="Path 483" d="M259.405,163.441a2.087,2.087,0,0,1-1.475-.611l-5.946-5.948a2.086,2.086,0,0,1,2.91-2.99l.04.04,4.472,4.472,13.765-13.766a2.086,2.086,0,0,1,2.95,2.95L260.88,162.83a2.086,2.086,0,0,1-1.475.611Z" transform="translate(-153.514 -73.97)" fill="#f4f8fc"/>
    <path id="Path_484" data-name="Path 484" d="M255.45,30.637h62.987V42.592H255.45Z" transform="translate(-156.187 0)" fill="#475673"/>
  </g>
</svg>
