<?xml version="1.0" encoding="utf-8"?>
<!-- Generator: Adobe Illustrator 21.0.0, SVG Export Plug-In . SVG Version: 6.00 Build 0)  -->
<svg version="1.1" id="Layer_1" xmlns="http://www.w3.org/2000/svg" xmlns:xlink="http://www.w3.org/1999/xlink" x="0px" y="0px"
	 viewBox="0 0 104 104" style="enable-background:new 0 0 104 104;" xml:space="preserve">
<style type="text/css">
	.st0{fill:#0F3DD5;}
</style>
<g id="icon4-how" transform="translate(0 -0.004)">
	<g id="Group_312" transform="translate(6.866 85.834)">
		<g id="Group_311">
			<path id="Path_607" class="st0" d="M5.7,0.5c-2.8,0-5.1,2.3-5.1,5.1s2.3,5.1,5.2,5.1c2.8,0,5.1-2.3,5.1-5.1l0,0
				C10.8,2.8,8.5,0.5,5.7,0.5z M5.7,7.4c-0.9,0-1.7-0.8-1.7-1.7c0-0.9,0.8-1.7,1.7-1.7s1.7,0.8,1.7,1.7C7.4,6.6,6.6,7.4,5.7,7.4
				C5.7,7.4,5.7,7.4,5.7,7.4L5.7,7.4z"/>
		</g>
	</g>
	<g id="Group_314" transform="translate(0 0.004)">
		<g id="Group_313">
			<path id="Path_608" class="st0" d="M102.3,73.2c-1.5-2.5-4.2-4-7.1-4h-0.4c-1.4,0-2.7,0.3-3.9,1l-13.2,7V53.7h6
				c5.2,0,9.4-4.2,9.4-9.4c0-5.2-4.2-9.4-9.4-9.4H46.8c-4.7,0-8.6-3.8-8.6-8.6s3.8-8.6,8.6-8.6c0,0,0,0,0,0h6l9.8,13
				c0.3,0.4,0.8,0.7,1.4,0.7h37.8c0.9,0,1.7-0.8,1.7-1.7c0,0,0,0,0,0V2.2c0-0.9-0.8-1.7-1.7-1.7c0,0,0,0,0,0H64
				c-0.5,0-1,0.3-1.4,0.7l-9.8,13.1h-6c-6.6,0-12,5.4-12,12s5.4,12,12,12h36.9c3.3,0,6,2.7,6,6c0,3.3-2.7,6-6,6h-6v-6.9
				c0-0.9-0.8-1.7-1.7-1.7c0,0,0,0,0,0H28c-0.9,0-1.7,0.8-1.7,1.7v25.8c-1.3,0.5-2.6,1-3.9,1.7H0.5v3.4h20.6v25.7H0.5v3.4h65
				c1.6,0,3.1-0.4,4.4-1.2l29.5-17.7C103.4,82.2,104.7,77.1,102.3,73.2z M67.5,20.8c2.7-0.9,4.1-3.9,3.1-6.6
				c-0.9-2.7-3.9-4.1-6.6-3.1c-1.5,0.5-2.6,1.7-3.1,3.1h-3.8l7.7-10.3h35.2v24H64.9l-7.7-10.3h3.8C61.8,20.3,64.8,21.8,67.5,20.8z
				 M64,16c0-0.9,0.8-1.7,1.7-1.7c0.9,0,1.7,0.8,1.7,1.7c0,0.9-0.8,1.7-1.7,1.7c0,0,0,0,0,0C64.8,17.7,64,16.9,64,16z M48.6,45.1
				h6.9V52h-6.9V45.1z M29.7,45.1h15.4v8.6c0,0.9,0.8,1.7,1.7,1.7h10.3c0.9,0,1.7-0.8,1.7-1.7v-8.6h15.4V79l-2.8,1.5
				c1-4.1-1.5-8.3-5.6-9.4c-0.6-0.2-1.3-0.2-1.9-0.2H47.3C41.9,68,35.7,67,29.7,68.2V45.1z M97.7,81.6L68.2,99.3
				c-0.8,0.5-1.7,0.7-2.6,0.7h-41V73.6c6.8-3.5,14.8-3.3,21.5,0.5c0.3,0.1,0.6,0.2,0.9,0.2H64c2.4,0,4.3,1.9,4.3,4.3
				c0,2.4-1.9,4.3-4.3,4.3H48.6c-0.9,0-1.7,0.7-1.8,1.7c0,0.9,0.7,1.7,1.7,1.8c0,0,0.1,0,0.1,0h18.9c0.3,0,0.6-0.1,0.8-0.2l24.3-13
				c0.7-0.4,1.5-0.6,2.3-0.6h0.4c2.7,0,4.9,2.2,4.9,4.9C100.1,79.2,99.2,80.7,97.7,81.6z"/>
		</g>
	</g>
	<g id="Group_316" transform="translate(82.394 6.87)">
		<g id="Group_315">
			<path id="Path_609" class="st0" d="M10.8,11.7c-0.1-1.3-0.9-2.5-2.1-3L4.2,6.4C4,6.3,3.9,6.1,4,5.9C4,5.7,4.2,5.7,4.3,5.7h6.5
				V2.2H7.4V0.5H3.9v1.8C1.8,2.5,0.3,4.4,0.5,6.5c0.1,1.3,0.9,2.5,2.1,3l4.5,2.3c0.2,0.1,0.3,0.3,0.2,0.5c-0.1,0.1-0.2,0.2-0.4,0.2
				H0.5v3.4h3.4v1.7h3.4v-1.8C9.5,15.7,11,13.8,10.8,11.7z"/>
		</g>
	</g>
</g>
</svg>
