<?xml version="1.0" encoding="utf-8"?>
<!-- Generator: Adobe Illustrator 21.0.0, SVG Export Plug-In . SVG Version: 6.00 Build 0)  -->
<svg version="1.1" id="Layer_1" xmlns="http://www.w3.org/2000/svg" xmlns:xlink="http://www.w3.org/1999/xlink" x="0px" y="0px"
	 viewBox="0 0 104 104" style="enable-background:new 0 0 104 104;" xml:space="preserve">
<style type="text/css">
	.st0{fill:#C7C7C7;}
</style>
<g id="icon4-supp" transform="translate(-8 -8)">
	<circle id="Ellipse_23" class="st0" cx="33.2" cy="32.8" r="1.5"/>
	<circle id="Ellipse_24" class="st0" cx="47.2" cy="32.8" r="1.5"/>
	<path id="Path_527" class="st0" d="M46.3,41.1l0.2-0.4l-3-1.5l-0.2,0.4c-0.9,1.8-3.2,2.6-5,1.7c-0.7-0.4-1.3-0.9-1.7-1.7l-0.2-0.4
		l-3,1.5l0.2,0.4c1.7,3.5,6,4.9,9.5,3.2C44.5,43.6,45.6,42.5,46.3,41.1L46.3,41.1z"/>
	<path id="Path_528" class="st0" d="M42.8,27.2c-0.8-0.8-1.2-1.8-1.2-2.8v-2.6h-3.3v2.6c0,2,0.8,3.8,2.2,5.2L42.8,27.2z"/>
	<path id="Path_529" class="st0" d="M49.5,27.2c-0.8-0.8-1.2-1.8-1.2-2.8v-2.6H45v2.6c0,2,0.8,3.8,2.2,5.2L49.5,27.2z"/>
	<path id="Path_530" class="st0" d="M108.3,75h-6.7V45h3.3c1.8,0,3.3-1.5,3.3-3.3v-30c0-1.8-1.5-3.3-3.3-3.3H75
		c-1.8,0-3.3,1.5-3.3,3.3v30h-3.3c-1.8,0-3.3,1.5-3.3,3.3v13.1c-2.2-1.7-4.9-2.8-7.6-3.2L48,53.5l-0.9-3.6c3.3-1.8,5.8-4.7,7-8.2H55
		c3.7,0,6.7-3,6.7-6.7c0-1.4-0.5-2.8-1.4-4l0.5-1.6c2.8-8.4-1.7-17.5-10.1-20.2c-1.6-0.5-3.3-0.8-5.1-0.8H34.3c-8.8,0-16,7.2-16,16
		c0,1.7,0.3,3.4,0.8,5l0.5,1.6c-0.9,1.1-1.4,2.5-1.4,4c0,3.7,3,6.7,6.7,6.7h0.9c1.2,3.5,3.7,6.4,7,8.2L32,53.5l-9.3,1.3
		C14.5,56,8.4,63.1,8.3,71.3V90c0,5.8,4.3,10.7,10,11.5v10.1h43.3v-10.1c5.7-0.8,10-5.7,10-11.5V78.3H75v30c0,1.8,1.5,3.3,3.3,3.3
		h30c1.8,0,3.3-1.5,3.3-3.3v-30C111.7,76.5,110.2,75,108.3,75z M85,11.7h3.3v6.7H85V11.7z M91.7,11.7H95v6.7h-3.3V11.7z M75,11.7
		h6.7v10h16.7v-10h6.7v30H75L75,11.7z M78.3,45h3.3v6.7h-3.3V45z M85,45h3.3v6.7H85L85,45z M49.2,57.1l-1.9,5.7L43,61.1l4.3-4.3
		L49.2,57.1z M55,38.3L55,38.3c0-0.6,0-1.1,0-1.7v-5c1.8,0,3.3,1.5,3.3,3.3S56.8,38.3,55,38.3z M25,38.3c-1.8,0-3.3-1.5-3.3-3.3
		s1.5-3.3,3.3-3.3l0,0v5c0,0.6,0,1.1,0.1,1.7H25z M28.3,36.7V30c0-2.8,2.2-5,5-5H35v-3.3h-1.7c-4,0-7.4,2.8-8.2,6.7H25
		c-0.9,0-1.7,0.2-2.5,0.5l-0.2-0.5c-2.2-6.6,1.4-13.8,8-16c1.3-0.4,2.6-0.7,4-0.7h11.3c7,0,12.7,5.7,12.7,12.7c0,1.4-0.2,2.7-0.7,4
		l-0.2,0.5c-0.8-0.3-1.7-0.5-2.5-0.5v-1.7h-3.3v10c-0.1,6.4-5.3,11.6-11.8,11.6C33.5,48.2,28.4,43,28.3,36.7z M40,51.7
		c1.3,0,2.7-0.2,4-0.6l0.8,3.4L40,59.3l-4.8-4.8l0.8-3.4C37.3,51.5,38.7,51.7,40,51.7L40,51.7z M32.7,56.8l4.3,4.3l-4.3,1.7L30.8,57
		L32.7,56.8z M21.7,101.7H25v6.7h-3.3V101.7z M38.3,88.3c1.8,0,3.3,1.5,3.3,3.3c0,1.8-1.5,3.3-3.3,3.3H35v-6.7H38.3z M34.7,98.3h3.6
		c3.7,0,6.7-2.9,6.7-6.6S42.2,85,38.5,85c-0.1,0-0.1,0-0.2,0h-10V75h3.3v3.3c0,1.8,1.5,3.3,3.3,3.3h10c1.8,0,3.3-1.5,3.3-3.3V75h3.3
		v33.3H28.3v-6.7H30C32.1,101.7,34,100.3,34.7,98.3z M35,75h10v3.3H35V75z M55,108.3v-6.7h3.3v6.7H55z M68.3,90
		c0,4.6-3.7,8.3-8.3,8.3h-5v-10h10V85h-3.3V71.7h-3.3V85H55V75c0-1.8-1.5-3.3-3.3-3.3H28.3c-1.8,0-3.3,1.5-3.3,3.3v10h-3.3V71.7
		h-3.3V85H15v3.3h16.7v8.3c0,0.9-0.7,1.7-1.7,1.7H20c-4.6,0-8.3-3.7-8.3-8.3V71.3c0-6.6,4.9-12.2,11.4-13.2l4.3-0.6l3.2,9.7l9.4-3.7
		l9.4,3.7l3.2-9.7l4.3,0.6c6.6,1,11.4,6.6,11.5,13.2V90z M71.7,75v-3.7c0-3.6-1.2-7.1-3.3-9.9V45H75v10h16.7V45h6.7v30H71.7z
		 M88.3,78.3h3.3V85h-3.3V78.3z M95,78.3h3.3V85H95L95,78.3z M108.3,108.3h-30v-30H85v10h16.7v-10h6.7V108.3z"/>
</g>
</svg>
