<svg xmlns="http://www.w3.org/2000/svg" width="85.055" height="78" viewBox="0 0 85.055 78">
  <g id="Group_25" data-name="Group 25" transform="translate(0 -21.232)">
    <path id="Path_29" data-name="Path 29" d="M379.127,81.9a1.246,1.246,0,0,0,1.246-1.246V78.984a1.246,1.246,0,0,0-2.492,0v1.675A1.246,1.246,0,0,0,379.127,81.9Z" transform="translate(-315.107 -47.119)" fill="#0f3dd5"/>
    <path id="Path_30" data-name="Path 30" d="M460.726,169.418a1.246,1.246,0,1,0,0,2.492H462.4a1.246,1.246,0,0,0,0-2.492Z" transform="translate(-383.15 -123.569)" fill="#0f3dd5"/>
    <path id="Path_31" data-name="Path 31" d="M287.447,169.418a1.246,1.246,0,1,0,0,2.492h1.675a1.246,1.246,0,1,0,0-2.492Z" transform="translate(-238.657 -123.569)" fill="#0f3dd5"/>
    <path id="Path_32" data-name="Path 32" d="M398.131,408.987A4.013,4.013,0,1,0,402.144,413,4.018,4.018,0,0,0,398.131,408.987Zm0,5.534A1.521,1.521,0,1,1,399.652,413,1.523,1.523,0,0,1,398.131,414.521Z" transform="translate(-328.646 -323.34)" fill="#0f3dd5"/>
    <path id="Path_33" data-name="Path 33" d="M144.424,413a4.013,4.013,0,1,0,4.013-4.013A4.018,4.018,0,0,0,144.424,413Zm5.534,0a1.521,1.521,0,1,1-1.521-1.521A1.523,1.523,0,0,1,149.958,413Z" transform="translate(-120.432 -323.34)" fill="#0f3dd5"/>
    <path id="Path_34" data-name="Path 34" d="M153.16,259.383a3.685,3.685,0,0,0-.029-5.305l-5.179-5.041a4.734,4.734,0,0,0-6.685.09l-.97,1a1.246,1.246,0,0,0,.024,1.762l4.992,4.859-4.992,4.859a1.246,1.246,0,0,0-.024,1.762l.97,1a4.727,4.727,0,0,0,6.685.09Zm-10.108,3.241-.1-.1,5.016-4.883a1.246,1.246,0,0,0,0-1.785l-5.016-4.883.1-.1a2.238,2.238,0,0,1,3.162-.043l5.179,5.041a1.188,1.188,0,0,1,.029,1.734l-5.208,5.069a2.236,2.236,0,0,1-3.162-.043Z" transform="translate(-116.696 -188.846)" fill="#0f3dd5"/>
    <path id="Path_35" data-name="Path 35" d="M377.881,125.463a1.246,1.246,0,0,0,1.246,1.246h4.237a1.246,1.246,0,0,0,0-2.492h-2.991v-7.759a1.246,1.246,0,0,0-2.492,0Z" transform="translate(-315.107 -78.368)" fill="#0f3dd5"/>
    <path id="Path_36" data-name="Path 36" d="M121.867,100.312H143.32a1.246,1.246,0,0,0,0-2.492H121.867a1.246,1.246,0,1,0,0,2.492Z" transform="translate(-100.583 -63.865)" fill="#0f3dd5"/>
    <path id="Path_37" data-name="Path 37" d="M90.563,139.059h22.269a1.246,1.246,0,1,0,0-2.492H90.563a1.246,1.246,0,1,0,0,2.492Z" transform="translate(-74.479 -96.175)" fill="#0f3dd5"/>
    <path id="Path_38" data-name="Path 38" d="M167.254,171.121a1.246,1.246,0,1,0,0,2.492h11.081a1.246,1.246,0,0,0,0-2.492Z" transform="translate(-138.43 -124.989)" fill="#0f3dd5"/>
    <path id="Path_39" data-name="Path 39" d="M104.021,171.121a1.246,1.246,0,1,0,0,2.492h5.531a1.246,1.246,0,1,0,0-2.492Z" transform="translate(-85.702 -124.989)" fill="#0f3dd5"/>
    <path id="Path_40" data-name="Path 40" d="M1.246,276.9H5.8a1.246,1.246,0,0,0,0-2.492H1.246a1.246,1.246,0,0,0,0,2.492Z" transform="translate(0 -211.116)" fill="#0f3dd5"/>
    <path id="Path_41" data-name="Path 41" d="M4.568,355.47H1.246a1.246,1.246,0,1,0,0,2.492H4.568a1.246,1.246,0,1,0,0-2.492Z" transform="translate(0 -278.714)" fill="#0f3dd5"/>
    <path id="Path_42" data-name="Path 42" d="M87.174,291.959H82.731a1.246,1.246,0,1,0,0,2.492h4.443a1.246,1.246,0,1,0,0-2.492Z" transform="translate(-67.949 -225.753)" fill="#0f3dd5"/>
    <path id="Path_43" data-name="Path 43" d="M75.753,64.552a21.1,21.1,0,0,0,9.3-17.457A20.812,20.812,0,0,0,82.8,37.614a1.246,1.246,0,1,0-2.224,1.124,18.348,18.348,0,0,1,1.986,8.356,18.6,18.6,0,0,1-8.512,15.594L66.8,54.752A4.468,4.468,0,0,0,63.506,53.3H46.544A18.543,18.543,0,0,1,77.905,34.807a1.246,1.246,0,0,0,1.865-1.652,21.05,21.05,0,0,0-6.452-4.923v-4.22a2.784,2.784,0,0,0-2.781-2.781H57.5a2.784,2.784,0,0,0-2.781,2.781v4.219A21.043,21.043,0,0,0,43.919,53.3H12.148a3.037,3.037,0,0,0-3.022,2.786H4.568a1.246,1.246,0,0,0,0,2.492H9.113V70.621H1.246a1.246,1.246,0,1,0,0,2.492H9.113v3.644a1.245,1.245,0,0,0,0,2.491V88.06a2.375,2.375,0,0,0,2.372,2.372h3.352V91.3H10.95a1.246,1.246,0,1,0,0,2.492h5.133a1.246,1.246,0,0,0,1.246-1.246V90.432h1.137a9.569,9.569,0,0,0,14.266,7.55A1.246,1.246,0,0,0,31.5,95.817,7.07,7.07,0,1,1,34.4,92.7a1.246,1.246,0,0,0,2.249,1.072,9.463,9.463,0,0,0,.894-3.342h22.4a9.57,9.57,0,0,0,19.078,0h2.565a3.47,3.47,0,0,0,3.466-3.466V76.456a4.437,4.437,0,0,0-1.165-3ZM57.214,24.013a.289.289,0,0,1,.289-.289H70.538a.289.289,0,0,1,.289.289V27.2a21.008,21.008,0,0,0-13.613,0V24.013Zm7.744,32.42L77.924,70.621H68.63a1.246,1.246,0,0,0,0,2.492H80.2l1.85,2.024c.754.825.437,1.721.512,2.671H81.6a1.246,1.246,0,0,0,0,2.492h.961v1.844H75.4a9.542,9.542,0,0,0-11.836,0H49.992V55.793h5.374V70.605a2.51,2.51,0,0,0,2.507,2.508h5.776a1.246,1.246,0,0,0,0-2.492H57.873a.016.016,0,0,1-.016-.016V55.793h5.648A1.972,1.972,0,0,1,64.958,56.433ZM60.069,87.941H49.992V84.635H61.341A9.509,9.509,0,0,0,60.069,87.941ZM36.149,84.635H47.5v3.306H37.42a9.509,9.509,0,0,0-1.271-3.306Zm-24.544,0h8.256a9.509,9.509,0,0,0-1.271,3.306H11.605Zm10.482-2.492H11.605v-2.9H17a1.246,1.246,0,0,0,0-2.492h-5.4V73.113H17a1.246,1.246,0,1,0,0-2.492h-5.4V56.336a.544.544,0,0,1,.543-.543H47.5V82.143H33.923a9.542,9.542,0,0,0-11.836,0Zm47.4,14.6a7.081,7.081,0,1,1,7.081-7.081A7.089,7.089,0,0,1,69.485,96.74Zm12.1-8.8H78.9a9.509,9.509,0,0,0-1.271-3.306h4.934v2.331A.975.975,0,0,1,81.588,87.941Z" fill="#0f3dd5"/>
  </g>
</svg>
