<svg xmlns="http://www.w3.org/2000/svg" width="75" height="78.047" viewBox="0 0 75 78.047">
  <g id="Outline" transform="translate(-24 -16)">
    <path id="Path_1" data-name="Path 1" d="M252.917,225.4a3.9,3.9,0,0,0-4.857-2.62l-34.893,10.44a1.3,1.3,0,0,0-.518.3L208.41,237.5a1.3,1.3,0,0,0,.667,2.229l5.73,1a1.305,1.305,0,0,0,.6-.035l28.313-8.471.123,2.679-9,2.692.746,2.493,9.969-2.983a1.3,1.3,0,0,0,.927-1.305l-.2-4.342,4.012-1.2a3.9,3.9,0,0,0,2.62-4.857Zm-37.965,12.717-2.865-.5,2.12-1.992,5.937-1.776.746,2.492Zm8.429-2.522-.746-2.492,20.836-6.234.123,2.679Zm26.942-8.459a1.294,1.294,0,0,1-.772.629l-3.389,1.014-.123-2.679,2.766-.827a1.3,1.3,0,0,1,1.518,1.864Z" transform="translate(-154.082 -173.019)" fill="#0f3dd5"/>
    <path id="Path_2" data-name="Path 2" d="M72.129,244.812H50.016V225.3a1.3,1.3,0,0,0-1.3-1.3H25.3a1.3,1.3,0,0,0-1.3,1.3v41.625a1.3,1.3,0,0,0,1.3,1.3H72.129a1.3,1.3,0,0,0,1.3-1.3V246.113A1.3,1.3,0,0,0,72.129,244.812Zm-14.309,2.6h5.2v5.2h-5.2ZM34.406,226.6h5.2v5.2h-5.2Zm-7.8,0h5.2v6.5a1.3,1.3,0,0,0,1.3,1.3h7.8a1.3,1.3,0,0,0,1.3-1.3v-6.5h5.2v18.211H26.6Zm7.8,20.812h5.2v5.2h-5.2Zm-7.8,0h5.2v6.5a1.3,1.3,0,0,0,1.3,1.3h7.8a1.3,1.3,0,0,0,1.3-1.3v-6.5h5.2v18.211H26.6Zm44.226,18.211H50.016V247.414h5.2v6.5a1.3,1.3,0,0,0,1.3,1.3h7.8a1.3,1.3,0,0,0,1.3-1.3v-6.5h5.2Z" transform="translate(0 -174.18)" fill="#0f3dd5"/>
    <path id="Path_3" data-name="Path 3" d="M280,448h2.6v2.6H280Z" transform="translate(-214.375 -361.758)" fill="#0f3dd5"/>
    <path id="Path_4" data-name="Path 4" d="M136,448h2.6v2.6H136Z" transform="translate(-93.789 -361.758)" fill="#0f3dd5"/>
    <path id="Path_5" data-name="Path 5" d="M136,320h2.6v2.6H136Z" transform="translate(-93.789 -254.571)" fill="#0f3dd5"/>
    <path id="Path_6" data-name="Path 6" d="M138.6,26.406a2.6,2.6,0,0,1,2.6-2.6h7.8v2.6h-6.5a1.3,1.3,0,0,0-1.3,1.3V47.219h2.6V29.008h31.219V49.82h2.6V27.707a1.3,1.3,0,0,0-1.3-1.3h-6.5V23.8h7.8a2.6,2.6,0,0,1,2.6,2.6V48.519h2.6V26.406a5.209,5.209,0,0,0-5.2-5.2H164.982l.9-3.587A1.3,1.3,0,0,0,164.617,16H154.211a1.3,1.3,0,0,0-1.262,1.616l.9,3.587H141.2a5.209,5.209,0,0,0-5.2,5.2V47.219h2.6Zm13.008-2.6h3.9a1.3,1.3,0,0,0,1.262-1.616l-.9-3.587h7.074l-.9,3.587a1.3,1.3,0,0,0,1.262,1.616h3.9v2.6H151.609Z" transform="translate(-93.789)" fill="#0f3dd5"/>
    <path id="Path_7" data-name="Path 7" d="M354.406,347.707a2.6,2.6,0,0,1-2.6,2.6H344v2.6h7.8a5.209,5.209,0,0,0,5.2-5.2V336h-2.6Z" transform="translate(-267.969 -267.969)" fill="#0f3dd5"/>
    <path id="Path_8" data-name="Path 8" d="M351.8,353.105V344h-2.6v7.8H344v2.6h6.5A1.3,1.3,0,0,0,351.8,353.105Z" transform="translate(-267.969 -274.668)" fill="#0f3dd5"/>
    <path id="Path_9" data-name="Path 9" d="M207.8,113.3a1.3,1.3,0,0,0-1.3-1.3h-5.2a1.3,1.3,0,0,0-1.3,1.3v5.2a1.3,1.3,0,0,0,1.3,1.3h5.2a1.3,1.3,0,0,0,1.3-1.3Zm-2.6,3.9h-2.6v-2.6h2.6Z" transform="translate(-147.383 -80.391)" fill="#0f3dd5"/>
    <path id="Path_10" data-name="Path 10" d="M206.5,184h-5.2a1.3,1.3,0,0,0-1.3,1.3v5.2a1.3,1.3,0,0,0,1.3,1.3h5.2a1.3,1.3,0,0,0,1.3-1.3v-5.2A1.3,1.3,0,0,0,206.5,184Zm-1.3,5.2h-2.6v-2.6h2.6Z" transform="translate(-147.383 -140.684)" fill="#0f3dd5"/>
    <path id="Path_11" data-name="Path 11" d="M264,112h2.6v2.6H264Z" transform="translate(-200.977 -80.391)" fill="#0f3dd5"/>
    <path id="Path_12" data-name="Path 12" d="M264,144h15.609v2.6H264Z" transform="translate(-200.977 -107.188)" fill="#0f3dd5"/>
    <path id="Path_13" data-name="Path 13" d="M296,112h10.406v2.6H296Z" transform="translate(-227.774 -80.391)" fill="#0f3dd5"/>
    <path id="Path_14" data-name="Path 14" d="M264,184h2.6v2.6H264Z" transform="translate(-200.977 -140.684)" fill="#0f3dd5"/>
    <path id="Path_15" data-name="Path 15" d="M264,216h15.609v2.6H264Z" transform="translate(-200.977 -167.481)" fill="#0f3dd5"/>
    <path id="Path_16" data-name="Path 16" d="M296,184h10.406v2.6H296Z" transform="translate(-227.774 -140.684)" fill="#0f3dd5"/>
  </g>
</svg>
