<?xml version="1.0" encoding="utf-8"?>
<!-- Generator: Adobe Illustrator 21.0.0, SVG Export Plug-In . SVG Version: 6.00 Build 0)  -->
<svg version="1.1" id="Layer_1" xmlns="http://www.w3.org/2000/svg" xmlns:xlink="http://www.w3.org/1999/xlink" x="0px" y="0px"
	 viewBox="0 0 104 104" style="enable-background:new 0 0 104 104;" xml:space="preserve">
<style type="text/css">
	.st0{fill:#0F3DD5;}
</style>
<g id="icon3-how" transform="translate(0 0.064)">
	<path id="Path_589" class="st0" d="M83.6,81.4c1.2,0,2.1,0.9,2.1,2.1c0,1.2-0.9,2.1-2.1,2.1c0,0,0,0,0,0h-2.1v-4.2L83.6,81.4z"/>
	<path id="Path_590" class="st0" d="M22.5,81.4h58.9v4.2H22.5V81.4z"/>
	<path id="Path_591" class="st0" d="M85.7,54v29.5c0-1.2-0.9-2.1-2.1-2.1h-2.1V54c0-1.2-0.9-2.1-2.1-2.1H71c-1.2,0-2.1-0.9-2.1-2.1
		c0,0,0,0,0,0c0-1.2,0.9-2.1,2.1-2.1h8.4C82.8,47.8,85.7,50.6,85.7,54z"/>
	<path id="Path_592" class="st0" d="M79.4,94H62.5c-0.5-0.9-1-1.8-1.3-2.8c-0.3-0.8-1.1-1.4-2-1.4h20.2c1.2,0,2.1-0.9,2.1-2.1v-2.1
		h2.1c1.2,0,2.1-0.9,2.1-2.1c0,0,0,0,0,0v4.2C85.7,91.2,82.8,94,79.4,94C79.4,94,79.4,94,79.4,94z"/>
	<path id="Path_593" class="st0" d="M60.4,38.1v16c0,1.2-0.9,2.1-2.1,2.1c-1.2,0-2.1-0.9-2.1-2.1v-16l2.1-2.1L60.4,38.1z"/>
	<path id="Path_594" class="st0" d="M61.2,91.2c0.3,1,0.8,1.9,1.3,2.8h-4.7c-0.2-0.5-0.4-0.9-0.5-1.4c-0.4-1.1,0.2-2.3,1.3-2.7
		C59.6,89.5,60.8,90.1,61.2,91.2L61.2,91.2L61.2,91.2z"/>
	<path id="Path_595" class="st0" d="M60.4,34v4L58.3,36l-2.1,2.1v-4c0-1.2,0.9-2.1,2.1-2.1C59.5,31.9,60.4,32.9,60.4,34L60.4,34z"/>
	<path id="Path_596" class="st0" d="M44.8,89.8h14.4c-1.2,0-2.1,0.9-2.1,2.1c0,0.2,0,0.5,0.1,0.7c0.2,0.5,0.3,0.9,0.5,1.4H46.2
		c0.2-0.5,0.4-1,0.5-1.4c0.4-1.1-0.2-2.3-1.3-2.6c0,0,0,0,0,0C45.2,89.9,45,89.8,44.8,89.8z"/>
	<path id="Path_597" class="st0" d="M50.5,37.8l6.3-6.3c0.8-0.8,2.1-0.8,2.9-0.1c0,0,0,0,0.1,0.1l6.3,6.3c0.8,0.8,0.7,2.2-0.1,3
		c-0.8,0.7-2,0.8-2.8,0l-2.7-2.7v-4c0-1.2-0.9-2.1-2.1-2.1c-1.2,0-2.1,0.9-2.1,2.1v4l-2.7,2.7c-0.8,0.8-2.1,0.8-2.9,0
		C49.7,40,49.7,38.7,50.5,37.8C50.5,37.9,50.5,37.9,50.5,37.8z"/>
	<path id="Path_598" class="st0" d="M47.8,61.6v4c0,1.2-0.9,2.1-2.1,2.1c-1.2,0-2.1-0.9-2.1-2.1l0,0v-4l2.1,2.1L47.8,61.6z"/>
	<path id="Path_599" class="st0" d="M47.8,45.6v16l-2.1,2.1l-2.1-2.1v-16c0-1.2,0.9-2.1,2.1-2.1C46.9,43.5,47.8,44.5,47.8,45.6
		L47.8,45.6L47.8,45.6z"/>
	<path id="Path_600" class="st0" d="M45.4,89.9c1.1,0.4,1.7,1.6,1.3,2.6c0,0,0,0,0,0c-0.2,0.5-0.3,1-0.5,1.4h-4.7
		c0.5-0.9,0.9-1.8,1.3-2.8c0.3-0.9,1.1-1.4,2-1.4C45,89.8,45.2,89.9,45.4,89.9z"/>
	<path id="Path_601" class="st0" d="M53.5,61.9l-6.3,6.3c-0.8,0.8-2.1,0.8-2.9,0l-6.3-6.3c-0.8-0.8-0.8-2.1,0-2.9c0,0,0,0,0,0
		c0.8-0.8,2.1-0.8,2.9,0l2.7,2.7v4c0,1.2,0.9,2.1,2.1,2.1c1.2,0,2.1-0.9,2.1-2.1v-4l2.7-2.7c0.8-0.8,2.2-0.8,3,0
		C54.3,59.7,54.3,61,53.5,61.9C53.5,61.8,53.5,61.9,53.5,61.9L53.5,61.9z"/>
	<path id="Path_602" class="st0" d="M43.9,98.2h16.2c-0.9-1.3-1.7-2.7-2.4-4.2h4.7c1,1.8,2.2,3.4,3.6,4.8c0.6,0.6,0.8,1.5,0.5,2.3
		c-0.3,0.8-1.1,1.3-1.9,1.3H39.4c-0.9,0-1.6-0.5-1.9-1.3c-0.3-0.8-0.2-1.7,0.5-2.3c1.4-1.4,2.6-3.1,3.6-4.8h4.7
		C45.6,95.5,44.8,96.9,43.9,98.2L43.9,98.2z"/>
	<path id="Path_603" class="st0" d="M22.5,81.4v4.2h-2.1c-1.2,0-2.1-0.9-2.1-2.1c0,0,0,0,0,0c0-1.2,0.9-2.1,2.1-2.1L22.5,81.4z"/>
	<path id="Path_604" class="st0" d="M24.6,51.9c-1.2,0-2.1,0.9-2.1,2.1v27.4h-2.1c-1.2,0-2.1,0.9-2.1,2.1V54c0-3.5,2.8-6.3,6.3-6.3
		h8.4c1.2,0,2.1,0.9,2.1,2.1c0,1.2-0.9,2.1-2.1,2.1c0,0,0,0,0,0L24.6,51.9z"/>
	<path id="Path_605" class="st0" d="M24.6,89.8h20.1c-0.9,0-1.7,0.6-2,1.4c-0.3,1-0.7,1.9-1.3,2.8H24.6c-3.5,0-6.3-2.8-6.3-6.3
		c0,0,0,0,0,0v-4.2c0,1.2,0.9,2.1,2.1,2.1c0,0,0,0,0,0h2.1v2.1C22.5,88.9,23.4,89.8,24.6,89.8C24.6,89.8,24.6,89.8,24.6,89.8z"/>
	<path id="Path_606" class="st0" d="M21.1,26.8C24.5,9.7,41.1-1.4,58.2,2C67.6,3.9,75.6,10,80,18.5c13.8,1.5,23.9,13.9,22.4,27.8
		c-0.5,4.2-2,8.3-4.4,11.8c-0.7,1-2,1.2-2.9,0.5c-0.6-0.4-0.9-1-0.9-1.7c0-0.4,0.1-0.9,0.4-1.2c2.5-3.5,3.9-7.7,3.8-12.1
		c0-11.1-8.7-20.3-19.8-21c-0.8,0-1.5-0.5-1.8-1.2C70.3,7.7,54,1.8,40.4,8.2C32,12.2,26.2,20,24.9,29.1c-0.1,1-1,1.8-2.1,1.8
		c-9.4-0.1-17,7.3-17.2,16.7c0,0,0,0.1,0,0.1c0,3.9,1.3,7.6,3.7,10.6c0.3,0.4,0.5,0.8,0.5,1.3c0,1.1-0.9,2.1-2,2.1c0,0-0.1,0-0.1,0
		c-0.6,0-1.2-0.3-1.6-0.8c-3.1-3.7-4.7-8.4-4.7-13.2C1.5,36.7,10.1,27.5,21.1,26.8L21.1,26.8z"/>
</g>
</svg>
