<?xml version="1.0" encoding="utf-8"?>
<!-- Generator: Adobe Illustrator 21.0.0, SVG Export Plug-In . SVG Version: 6.00 Build 0)  -->
<svg version="1.1" id="icon2-supp" xmlns="http://www.w3.org/2000/svg" xmlns:xlink="http://www.w3.org/1999/xlink" x="0px" y="0px"
	 viewBox="0 0 104 104" style="enable-background:new 0 0 104 104;" xml:space="preserve">
<style type="text/css">
	.st0{fill:#C7C7C7;}
</style>
<g id="Group_256" transform="translate(53.542 60.235)">
	<g id="Group_255">
		<path id="Path_507" class="st0" d="M6.8,13.5c-1.8,0-3.3-1.5-3.3-3.3c0-1.8,1.5-3.3,3.3-3.3c1.8,0,3.3,1.5,3.3,3.3h3.3
			c0-3-2.1-5.7-5-6.5V0.1H5.2v3.6c-3.6,0.9-5.7,4.6-4.8,8.1c0.8,3,3.4,5,6.5,5c1.8,0,3.3,1.5,3.3,3.3c0,1.8-1.5,3.3-3.3,3.3
			c-1.8,0-3.3-1.5-3.3-3.3H0.1c0,3,2.1,5.7,5,6.5v3.6h3.3v-3.6c3.6-0.9,5.7-4.6,4.8-8.1C12.5,15.6,9.9,13.5,6.8,13.5L6.8,13.5z"/>
	</g>
</g>
<g id="Group_258">
	<g id="Group_257">
		<path id="Path_508" class="st0" d="M93.8,33.6h-8.4c0-3.1-2.1-5.7-5.1-6.5c-0.8-15.7-14.1-27.7-29.8-27c-14.6,0.7-26.2,12.4-27,27
			c-3,0.7-5.1,3.4-5.1,6.5h-8.4c-5.5,0-10,4.5-10,10v55.2c0,2.8,2.2,5,5,5h93.7c2.8,0,5-2.2,5-5V43.6
			C103.9,38.1,99.4,33.6,93.8,33.6z M82.1,33.6h-6.7c0-1.8,1.5-3.3,3.3-3.3S82.1,31.7,82.1,33.6L82.1,33.6z M52,3.5
			c13.3,0,24.3,10.4,25,23.7c-2.9,0.8-4.9,3.4-4.9,6.4H31.9c0-3-2-5.6-4.9-6.4C27.7,13.9,38.7,3.5,52,3.5z M25.2,30.2
			c1.8,0,3.3,1.5,3.3,3.3h-6.7C21.9,31.7,23.4,30.3,25.2,30.2z M5.8,100.5l4.3-4.3l4.3,4.3H5.8z M16.9,98.2l-5-5V63.7H8.5v29.4l-5,5
			V43.6c0-3.7,3-6.7,6.7-6.7s6.7,3,6.7,6.7V98.2z M100.5,98.9c0,0.9-0.7,1.7-1.7,1.7H20.2V54.9l20.3,11.6
			c-4.9,10.9-0.1,23.8,10.9,28.8c7.5,3.4,16.4,2.2,22.8-3l-2.1-2.6c-7.8,6.5-19.4,5.3-25.9-2.5s-5.3-19.4,2.5-25.9
			s19.4-5.3,25.9,2.5c2.7,3.3,4.2,7.4,4.2,11.7c0,4-1.3,8-3.8,11.2l2.7,2c4.9-6.3,5.8-14.9,2.5-22.1l20.3-11.6L100.5,98.9z
			 M100.5,51L78.6,63.6c-6.5-10.1-20-12.9-30-6.4c-2.6,1.7-4.7,3.8-6.4,6.4L20.2,51v-2.4h70.3v-3.3H20.2v-1.7c0-2.5-0.9-4.9-2.6-6.7
			h76.2c3.7,0,6.7,3,6.7,6.7L100.5,51z"/>
	</g>
</g>
<g id="Group_260" transform="translate(72.123 73.743)">
	<g id="Group_259" transform="translate(0 0)">
		<rect id="Rectangle_1538" x="0.1" y="0.1" class="st0" width="3.2" height="3.2"/>
	</g>
</g>
<g id="Group_262" transform="translate(45.388 73.743)">
	<g id="Group_261" transform="translate(0 0)">
		<rect id="Rectangle_1539" x="0.1" y="0.1" class="st0" width="3.2" height="3.2"/>
	</g>
</g>
<g id="Group_264" transform="translate(93.997 45.388)">
	<g id="Group_263" transform="translate(0 0)">
		<rect id="Rectangle_1540" x="0.1" y="0.1" class="st0" width="3.2" height="3.2"/>
	</g>
</g>
</svg>
