<?xml version="1.0" encoding="utf-8"?>
<!-- Generator: Adobe Illustrator 21.0.0, SVG Export Plug-In . SVG Version: 6.00 Build 0)  -->
<svg version="1.1" id="Layer_1" xmlns="http://www.w3.org/2000/svg" xmlns:xlink="http://www.w3.org/1999/xlink" x="0px" y="0px"
	 viewBox="0 0 104 104" style="enable-background:new 0 0 104 104;" xml:space="preserve">
<style type="text/css">
	.st0{fill:#C7C7C7;}
</style>
<g id="icon6-supp" transform="translate(-26.48)">
	<g id="Group_305" transform="translate(26.48)">
		<path id="Path_563" class="st0" d="M87.2,35.7c0.1-19.5-15.6-35.3-35-35.4s-35.3,15.6-35.4,35c0,0.1,0,0.3,0,0.4
			c-5,0.6-9.8,3.9-9.8,11.5v18.4c0,8.6,6,11.7,11.7,11.7h5.7c1.1,0,2-0.9,2-2V37.6c0-1.1-0.9-2-2-2h-3.7c0-17.3,14-31.3,31.3-31.3
			s31.3,14,31.3,31.3h-3.7c-1.1,0-2,0.9-2,2v37.8c0,1.1,0.9,2,2,2h3.7c-0.5,13.4-7,16.6-19.9,17.2v-1.3c0-2.2-1.8-3.9-3.9-3.9H47.2
			c-2.2,0-3.9,1.8-3.9,3.9l0,0v6.4c0,2.2,1.8,3.9,3.9,3.9h12.4c2.2,0,3.9-1.8,3.9-3.9l0,0v-1.1c12.4-0.6,23.1-3.1,23.8-21.2
			c5-0.6,9.8-3.9,9.8-11.5V47.3C97,39.6,92.3,36.4,87.2,35.7z M22.4,39.4v34.1h-3.8c-2.9,0-7.8-1-7.8-7.8V47.2
			c0-6.8,4.9-7.8,7.8-7.8L22.4,39.4z M59.5,96.6v3H47.2v-6.4h12.4V96.6z M93.1,65.7c0,6.8-4.9,7.8-7.8,7.8h-3.7v-34h3.8
			c2.9,0,7.8,1,7.8,7.8L93.1,65.7z"/>
	</g>
</g>
</svg>
