<?xml version="1.0" encoding="utf-8"?>
<!-- Generator: Adobe Illustrator 21.0.0, SVG Export Plug-In . SVG Version: 6.00 Build 0)  -->
<svg version="1.1" id="Layer_1" xmlns="http://www.w3.org/2000/svg" xmlns:xlink="http://www.w3.org/1999/xlink" x="0px" y="0px"
	 viewBox="0 0 104 104" style="enable-background:new 0 0 104 104;" xml:space="preserve">
<style type="text/css">
	.st0{fill:#C7C7C7;}
</style>
<g id="icon3-supp" transform="translate(-1251.205 -885)">
	<g id="Stamp-Contract-Certification-Document-Business" transform="translate(1219.205 869)">
		<path id="Path_509" class="st0" d="M105.9,116.2H44c-2.9,0-5.2-2.3-5.2-5.2l0,0V25c0-2.8,2.3-5.2,5.2-5.2h53.4v8.6
			c0,2.9,2.3,5.2,5.2,5.2l0,0h8.6v13.8h3.4V31.9c0-0.5-0.2-0.9-0.5-1.2l-13.8-13.8c-0.3-0.3-0.8-0.5-1.2-0.5H44
			c-4.7,0-8.6,3.9-8.6,8.6v86c0,4.7,3.9,8.6,8.6,8.6h62c2.1,0,4.1-0.8,5.7-2.2l-2.3-2.6C108.4,115.7,107.2,116.2,105.9,116.2z
			 M100.7,28.4v-6.2l7.9,7.9h-6.2C101.5,30.1,100.7,29.4,100.7,28.4C100.7,28.4,100.7,28.4,100.7,28.4z"/>
		<path id="Path_510" class="st0" d="M62.9,109.3c9.5,0,17.2-7.7,17.2-17.2c0-9.5-7.7-17.2-17.2-17.2s-17.2,7.7-17.2,17.2l0,0
			C45.7,101.6,53.4,109.3,62.9,109.3z M62.9,78.3c7.6,0,13.8,6.2,13.8,13.8s-6.2,13.8-13.8,13.8c-7.6,0-13.8-6.2-13.8-13.8l0,0
			C49.1,84.5,55.3,78.3,62.9,78.3z"/>
		<path id="Path_511" class="st0" d="M61.2,99c0.5,0,0.9-0.2,1.2-0.5l10.3-10.3l-2.4-2.4l-9.1,9.1l-3.9-3.9l-2.4,2.4l5.2,5.2
			C60.3,98.8,60.7,99,61.2,99L61.2,99z"/>
		<path id="Path_512" class="st0" d="M76.6,42.2h-3.4c-1,0-1.7-0.8-1.7-1.7H68c0,2.9,2.3,5.2,5.2,5.2v1.7h3.4v-1.7
			c2.9,0,5.1-2.4,5.1-5.2c0-2.8-2.3-5.1-5.1-5.1h-3.4c-1,0-1.7-0.8-1.7-1.7s0.8-1.7,1.7-1.7h3.4c1,0,1.7,0.8,1.7,1.7h3.4
			c0-2.9-2.3-5.2-5.2-5.2v-1.7h-3.4v1.7c-2.9,0-5.1,2.4-5.1,5.2c0,2.8,2.3,5.1,5.1,5.1h3.4c1,0,1.7,0.8,1.7,1.7S77.6,42.2,76.6,42.2
			L76.6,42.2z"/>
		<path id="Path_513" class="st0" d="M85.3,35.3h3.4v3.4h-3.4V35.3z"/>
		<path id="Path_514" class="st0" d="M61.2,35.3h3.4v3.4h-3.4V35.3z"/>
		<path id="Path_515" class="st0" d="M45.7,50.8h6.9v3.4h-6.9V50.8z"/>
		<path id="Path_516" class="st0" d="M56,50.8h41.3v3.4H56V50.8z"/>
		<path id="Path_517" class="st0" d="M45.7,57.7h48.2v3.4H45.7V57.7z"/>
		<path id="Path_518" class="st0" d="M45.7,64.6h48.2V68H45.7V64.6z"/>
		<path id="Path_519" class="st0" d="M45.7,71.4h6.9v3.4h-6.9V71.4z"/>
		<path id="Path_520" class="st0" d="M73.2,71.4h20.7v3.4H73.2V71.4z"/>
		<path id="Path_521" class="st0" d="M81.8,78.3h13.8v3.4H81.8V78.3z"/>
	</g>
	<g id="Group_269" transform="translate(1312.497 925.746)">
		<g id="Group_268" transform="translate(0)">
			<g id="Group_267">
				<path id="Path_522" class="st0" d="M4.1,36.1c-0.4,0-0.7-0.3-0.7-0.7v-9.9c0-3.1,2.5-5.7,5.7-5.7h16.5v-6.6
					c0-0.4,0.3-0.7,0.7-0.7c0.4,0,0.7,0.3,0.7,0.7v6.6h4.4V7c0-2.9-2.3-5.2-5.2-5.2h-9.9c-2.9,0-5.2,2.3-5.2,5.2v6.6
					c0,0.1,0.1,0.2,0.2,0.2l0,0h3.9c0.1,0,0.2-0.1,0.2-0.2v0V8c0-1,0.8-1.7,1.7-1.7h7.9c1,0,1.7,0.8,1.7,1.7v2.4
					c0,0.4-0.3,0.7-0.7,0.7c-0.4,0-0.7-0.3-0.7-0.7V8c0-0.1-0.1-0.2-0.2-0.2l0,0h-7.9c-0.1,0-0.2,0.1-0.2,0.2c0,0,0,0,0,0v5.6
					c0,1-0.8,1.7-1.7,1.7h-3.9c-1,0-1.7-0.8-1.7-1.7V7c0-3.7,3-6.7,6.7-6.7h9.9c3.7,0,6.7,3,6.7,6.7v12.8h0.7c3.1,0,5.7,2.5,5.7,5.7
					v19.7c0,3.1-2.5,5.7-5.7,5.7H9c-3.1,0-5.7-2.5-5.7-5.7V38c0-0.4,0.3-0.7,0.7-0.7c0.4,0,0.7,0.3,0.7,0.7v7.2
					c0,2.3,1.9,4.2,4.2,4.2h24.7c2.3,0,4.2-1.9,4.2-4.2V25.5c0-2.3-1.9-4.2-4.2-4.2H9c-2.3,0-4.2,1.9-4.2,4.2v9.9
					C4.8,35.8,4.5,36.1,4.1,36.1z"/>
				<g id="Group_266" transform="translate(11.103 42.036)">
					<path id="Path_523" class="st0" d="M16.4,3c0.4,0,0.7-0.3,0.7-0.7V1.1c0-0.4-0.3-0.7-0.7-0.7c-0.4,0-0.7,0.3-0.7,0.7
						c0,0,0,0,0,0v1.2C15.7,2.7,16,3,16.4,3z"/>
					<path id="Path_524" class="st0" d="M4.1,3c0.4,0,0.7-0.3,0.7-0.7V1.1c0-0.4-0.3-0.7-0.7-0.7c-0.4,0-0.7,0.3-0.7,0.7v1.2
						C3.4,2.7,3.7,3,4.1,3z"/>
					<path id="Path_525" class="st0" d="M10.3,3.7c0.8,0,1.6-0.4,2.2-1c0.3-0.3,0.2-0.8-0.1-1c-0.3-0.3-0.8-0.2-1,0.1
						c-0.5,0.6-1.4,0.7-2,0.1c0,0-0.1-0.1-0.1-0.1c-0.3-0.3-0.7-0.3-1-0.1C7.8,2,7.8,2.4,8.1,2.7C8.6,3.4,9.4,3.7,10.3,3.7L10.3,3.7
						z"/>
				</g>
				<path id="Path_526" class="st0" d="M18.1,33.9c-2.6-1.8-3.2-5.3-1.5-7.9c1.8-2.6,5.3-3.2,7.9-1.5c2.6,1.8,3.2,5.3,1.5,7.9
					c-0.4,0.6-0.9,1.1-1.5,1.5v2.7c0,1.8-1.4,3.2-3.2,3.2c-1.8,0-3.2-1.4-3.2-3.2V33.9L18.1,33.9z M19.3,32.9
					c0.2,0.1,0.4,0.4,0.4,0.6v3.1c0,1,0.8,1.7,1.7,1.7s1.7-0.8,1.7-1.7v-3.1c0-0.3,0.1-0.5,0.4-0.6c2-1.2,2.7-3.7,1.5-5.7
					c-0.7-1.2-2-2-3.5-2.1c-0.1,0-0.1,0-0.2,0c-2.3,0-4.2,1.9-4.2,4.2C17.2,30.7,18,32.1,19.3,32.9L19.3,32.9z"/>
			</g>
		</g>
	</g>
</g>
</svg>
