<?xml version="1.0" encoding="utf-8"?>
<!-- Generator: Adobe Illustrator 21.0.0, SVG Export Plug-In . SVG Version: 6.00 Build 0)  -->
<svg version="1.1" id="Layer_1" xmlns="http://www.w3.org/2000/svg" xmlns:xlink="http://www.w3.org/1999/xlink" x="0px" y="0px"
	 viewBox="0 0 104 104" style="enable-background:new 0 0 104 104;" xml:space="preserve">
<style type="text/css">
	.st0{fill:#0F3DD5;}
</style>
<g id="icon2-how" transform="translate(0 -72.439)">
	<g id="Group_309" transform="translate(0 72.439)">
		<path id="Path_579" class="st0" d="M49.2,70.5c0-2.3-1.9-4.1-4.2-4h-2.6c-0.8,0-1.5,0.7-1.5,1.5v9.7c0,0.8,0.7,1.5,1.5,1.5
			s1.5-0.7,1.5-1.5v-2l2.6,3c0.5,0.6,1.5,0.7,2.1,0.2c0.6-0.5,0.7-1.5,0.2-2.1c0,0-0.1-0.1-0.1-0.1l-2.2-2.5
			C48.2,73.6,49.2,72.1,49.2,70.5z M45.1,71.5H44c0-0.4,0-1.6,0-2.1h1.1c0.6-0.1,1.1,0.3,1.2,0.9c0.1,0.6-0.3,1.1-0.9,1.2
			C45.2,71.5,45.1,71.5,45.1,71.5L45.1,71.5z"/>
		<path id="Path_580" class="st0" d="M13.6,67.5c-0.4-0.9-1.4-1.3-2.2-0.9c-0.4,0.2-0.8,0.5-0.9,0.9l0,0l-3.7,9.6
			c-0.3,0.8,0.2,1.6,1,1.9c0.7,0.2,1.5-0.1,1.8-0.8l0.5-1.4h3.8l0.5,1.4c0.2,0.8,1.1,1.2,1.9,1c0.8-0.2,1.2-1.1,1-1.9
			c0-0.1,0-0.1-0.1-0.2L13.6,67.5C13.7,67.5,13.7,67.5,13.6,67.5L13.6,67.5z M11.3,73.8l0.8-2l0.8,2H11.3z"/>
		<path id="Path_581" class="st0" d="M77.2,77.7c0,0.8,0.7,1.5,1.5,1.5h4.1c0.8,0,1.5-0.7,1.5-1.5s-0.7-1.5-1.5-1.5h-2.6v-1.8h2.3
			c0.8,0,1.5-0.7,1.5-1.5s-0.7-1.5-1.5-1.5h-2.3v-1.8h2.6c0.8,0,1.5-0.7,1.5-1.5s-0.7-1.5-1.5-1.5h-4.1c-0.8,0-1.5,0.7-1.5,1.5V77.7
			z"/>
		<path id="Path_582" class="st0" d="M72.1,67.5l-2,6l-2.1-6c-0.3-0.8-1.2-1.1-1.9-0.8c-0.7,0.3-1.1,1.1-0.9,1.8l3.3,9.6
			c0.2,0.7,0.9,1.1,1.6,1.1h0c0.7,0,1.4-0.5,1.6-1.2l3.2-9.6c0.3-0.8-0.1-1.6-0.9-1.9c-0.8-0.3-1.6,0.1-1.9,0.9
			C72.1,67.4,72.1,67.4,72.1,67.5L72.1,67.5z"/>
		<path id="Path_583" class="st0" d="M21,66.4c-0.8,0-1.5,0.6-1.5,1.4c0,0,0,9.8,0,9.8c0,0.8,0.7,1.5,1.5,1.5s1.5-0.7,1.5-1.5v-2.7
			h1.2c2.3,0,4.3-1.8,4.3-4.2c0-2.3-1.8-4.3-4.2-4.3c0,0-0.1,0-0.1,0L21,66.4L21,66.4z M25,70.7c0,0.7-0.6,1.3-1.3,1.2h-1.2
			c0-0.5,0-1,0-1.2c0-0.3,0-0.7,0-1.2h1.2C24.4,69.4,25,70,25,70.7L25,70.7z"/>
		<path id="Path_584" class="st0" d="M31.8,66.4c-0.8,0-1.5,0.7-1.5,1.5v9.7c0,0.8,0.7,1.5,1.5,1.5s1.5-0.7,1.5-1.5v-2.7h1.2
			c2.3,0,4.3-1.8,4.3-4.2c0-2.3-1.8-4.3-4.2-4.3c0,0-0.1,0-0.1,0L31.8,66.4z M35.8,70.7c0,0.7-0.6,1.3-1.3,1.2h-1.2c0-0.5,0-1,0-1.2
			c0-0.3,0-0.7,0-1.2h1.2C35.2,69.4,35.7,70,35.8,70.7L35.8,70.7z"/>
		<path id="Path_585" class="st0" d="M51.1,72.8c0,3.5,2.8,6.4,6.4,6.4c3.5,0,6.4-2.8,6.4-6.4c0-3.5-2.8-6.4-6.4-6.4c0,0,0,0,0,0
			C54,66.4,51.1,69.3,51.1,72.8z M60.9,72.8c0,1.9-1.5,3.4-3.4,3.4s-3.4-1.5-3.4-3.4c0-1.9,1.5-3.4,3.4-3.4
			C59.3,69.4,60.8,70.9,60.9,72.8z"/>
		<path id="Path_586" class="st0" d="M88.1,78.7c0.3,0.3,0.7,0.4,1.1,0.4h0c0.1,0,2,0,2.8,0c3.1-0.1,5.3-2.7,5.3-6.3
			c0-3.8-2.2-6.4-5.4-6.4h-2.8c-0.8,0-1.5,0.7-1.5,1.5c0,0,0,3.7,0,4.8c0,1.4,0,4.9,0,4.9C87.6,78.1,87.8,78.4,88.1,78.7z
			 M91.9,69.4c2.3,0,2.4,2.6,2.4,3.4c0,1.6-0.7,3.3-2.4,3.3c-0.3,0-0.8,0-1.3,0c0-1.1,0-2.6,0-3.4c0-0.6,0-2.2,0-3.4L91.9,69.4z"/>
		<path id="Path_587" class="st0" d="M99.4,45.8H82.8c-0.8,0-1.5,0.7-1.5,1.5s0.7,1.5,1.5,1.5h16.6c0.5,0,1,0.4,1,1v50.1
			c0,0.5-0.4,1-1,1H4.6c-0.5,0-1-0.4-1-1V49.7c0-0.5,0.4-1,1-1h38.5c5.7,2.2,12.1,2.2,17.8,0h15c0.8,0,1.5-0.7,1.5-1.5
			s-0.7-1.5-1.5-1.5h-9.4c11.3-8,14-23.7,6-35s-23.7-14-35-6s-14,23.7-6,35c1.6,2.3,3.7,4.3,6,6H4.6c-2.2,0-4,1.8-4,4v50.1
			c0,2.2,1.8,4,4,4h94.8c2.2,0,4-1.8,4-4V49.7C103.3,47.5,101.6,45.8,99.4,45.8z M29.9,25.3c0-12.2,9.9-22.1,22.1-22.1
			s22.1,9.9,22.1,22.1S64.2,47.4,52,47.4C39.8,47.4,29.9,37.5,29.9,25.3z"/>
		<path id="Path_588" class="st0" d="M52.6,35.8L65.4,22c2-2.1,1.8-5.5-0.3-7.5s-5.5-1.8-7.5,0.3l0,0l-1.8,1.9
			c-0.6,0.6-0.6,1.5,0,2.1c0.6,0.6,1.5,0.6,2.1,0c0,0,0.1-0.1,0.1-0.1l1.8-1.9c0.9-0.9,2.3-1,3.2-0.1s1,2.3,0.1,3.2l0,0L50.4,33.7
			c-0.4,0.4-1,0.7-1.6,0.7h-0.1c-0.6,0-1.2-0.2-1.6-0.6l-6.3-6.1c-0.9-0.9-1-2.3-0.1-3.2c0.9-0.9,2.3-1,3.2-0.1c0,0,0,0,0,0l3.5,3.4
			c0.6,0.6,1.5,0.6,2.1,0c0,0,0,0,0,0l3.7-4c0.5-0.6,0.4-1.6-0.2-2.1c-0.6-0.5-1.5-0.5-2,0.1l-2.6,2.9l-2.4-2.3
			c-2.1-2-5.4-1.9-7.5,0.2c-2,2.1-1.9,5.4,0.1,7.4l6.3,6.1c1,1,2.3,1.5,3.7,1.5h0.1C50.3,37.4,51.7,36.8,52.6,35.8z"/>
	</g>
</g>
</svg>
