<svg xmlns="http://www.w3.org/2000/svg" width="67.335" height="78" viewBox="0 0 67.335 78">
  <g id="Group_1" data-name="Group 1" transform="translate(-40)">
    <g id="Group_2" data-name="Group 2" transform="translate(56.16 55.9)">
      <g id="Group_1-2" data-name="Group 1" transform="translate(0)">
        <path id="Path_17" data-name="Path 17" d="M140.04,344h-2.693a1.3,1.3,0,1,0,0,2.6h2.693a1.3,1.3,0,1,0,0-2.6Z" transform="translate(-136 -344)" fill="#0f3dd5"/>
      </g>
    </g>
    <g id="Group_4" data-name="Group 4" transform="translate(64.24 55.9)">
      <g id="Group_3" data-name="Group 3">
        <path id="Path_18" data-name="Path 18" d="M217.667,344H185.347a1.3,1.3,0,1,0,0,2.6h32.321a1.3,1.3,0,1,0,0-2.6Z" transform="translate(-184 -344)" fill="#0f3dd5"/>
      </g>
    </g>
    <g id="Group_6" data-name="Group 6" transform="translate(56.16 48.1)">
      <g id="Group_5" data-name="Group 5" transform="translate(0)">
        <path id="Path_19" data-name="Path 19" d="M140.04,296h-2.693a1.3,1.3,0,1,0,0,2.6h2.693a1.3,1.3,0,1,0,0-2.6Z" transform="translate(-136 -296)" fill="#0f3dd5"/>
      </g>
    </g>
    <g id="Group_8" data-name="Group 8" transform="translate(64.24 48.1)">
      <g id="Group_7" data-name="Group 7">
        <path id="Path_20" data-name="Path 20" d="M217.667,296H185.347a1.3,1.3,0,1,0,0,2.6h32.321a1.3,1.3,0,1,0,0-2.6Z" transform="translate(-184 -296)" fill="#0f3dd5"/>
      </g>
    </g>
    <g id="Group_10" data-name="Group 10" transform="translate(56.16 40.3)">
      <g id="Group_9" data-name="Group 9" transform="translate(0)">
        <path id="Path_21" data-name="Path 21" d="M140.04,248h-2.693a1.3,1.3,0,1,0,0,2.6h2.693a1.3,1.3,0,1,0,0-2.6Z" transform="translate(-136 -248)" fill="#0f3dd5"/>
      </g>
    </g>
    <g id="Group_12" data-name="Group 12" transform="translate(64.24 40.3)">
      <g id="Group_11" data-name="Group 11">
        <path id="Path_22" data-name="Path 22" d="M217.667,248H185.347a1.3,1.3,0,1,0,0,2.6h32.321a1.3,1.3,0,1,0,0-2.6Z" transform="translate(-184 -248)" fill="#0f3dd5"/>
      </g>
    </g>
    <g id="Group_14" data-name="Group 14" transform="translate(56.16 32.5)">
      <g id="Group_13" data-name="Group 13" transform="translate(0)">
        <path id="Path_23" data-name="Path 23" d="M140.04,200h-2.693a1.3,1.3,0,1,0,0,2.6h2.693a1.3,1.3,0,1,0,0-2.6Z" transform="translate(-136 -200)" fill="#0f3dd5"/>
      </g>
    </g>
    <g id="Group_16" data-name="Group 16" transform="translate(64.24 32.5)">
      <g id="Group_15" data-name="Group 15">
        <path id="Path_24" data-name="Path 24" d="M217.667,200H185.347a1.3,1.3,0,1,0,0,2.6h32.321a1.3,1.3,0,1,0,0-2.6Z" transform="translate(-184 -200)" fill="#0f3dd5"/>
      </g>
    </g>
    <g id="Group_18" data-name="Group 18" transform="translate(56.16 24.7)">
      <g id="Group_17" data-name="Group 17" transform="translate(0)">
        <path id="Path_25" data-name="Path 25" d="M140.04,152h-2.693a1.3,1.3,0,1,0,0,2.6h2.693a1.3,1.3,0,1,0,0-2.6Z" transform="translate(-136 -152)" fill="#0f3dd5"/>
      </g>
    </g>
    <g id="Group_20" data-name="Group 20" transform="translate(64.24 24.7)">
      <g id="Group_19" data-name="Group 19">
        <path id="Path_26" data-name="Path 26" d="M217.667,152H185.347a1.3,1.3,0,1,0,0,2.6h32.321a1.3,1.3,0,1,0,0-2.6Z" transform="translate(-184 -152)" fill="#0f3dd5"/>
      </g>
    </g>
    <g id="Group_22" data-name="Group 22" transform="translate(40)">
      <g id="Group_21" data-name="Group 21">
        <path id="Path_27" data-name="Path 27" d="M107.317,19.418a1.191,1.191,0,0,0-.069-.334c-.015-.042-.026-.082-.044-.122a1.3,1.3,0,0,0-.269-.381L88.081.381a1.349,1.349,0,0,0-.395-.26C87.645.1,87.6.092,87.561.078A1.383,1.383,0,0,0,87.212.01c-.023,0-.048-.01-.078-.01H49.427A1.324,1.324,0,0,0,48.08,1.3V5.2H41.347A1.324,1.324,0,0,0,40,6.5V76.7A1.324,1.324,0,0,0,41.347,78H97.908a1.324,1.324,0,0,0,1.347-1.3V70.2h6.733a1.324,1.324,0,0,0,1.347-1.3V19.5C107.335,19.471,107.32,19.447,107.317,19.418ZM88.481,4.438,102.737,18.2H88.481ZM96.561,75.4H42.693V7.8H48.08V68.9a1.324,1.324,0,0,0,1.347,1.3H96.561Zm8.08-7.8H50.774V2.6H85.788V19.5a1.324,1.324,0,0,0,1.347,1.3h17.507Z" transform="translate(-40)" fill="#0f3dd5"/>
      </g>
    </g>
    <g id="Group_24" data-name="Group 24" transform="translate(56.16 11.7)">
      <g id="Group_23" data-name="Group 23" transform="translate(0)">
        <path id="Path_28" data-name="Path 28" d="M145.427,72h-8.08A1.324,1.324,0,0,0,136,73.3v7.8a1.324,1.324,0,0,0,1.347,1.3h8.08a1.324,1.324,0,0,0,1.347-1.3V73.3A1.324,1.324,0,0,0,145.427,72Zm-1.347,7.8h-5.387V74.6h5.387Z" transform="translate(-136 -72)" fill="#0f3dd5"/>
      </g>
    </g>
  </g>
</svg>
