<?xml version="1.0" encoding="utf-8"?>
<!-- Generator: Adobe Illustrator 21.0.0, SVG Export Plug-In . SVG Version: 6.00 Build 0)  -->
<svg version="1.1" id="icon1-supp" xmlns="http://www.w3.org/2000/svg" xmlns:xlink="http://www.w3.org/1999/xlink" x="0px" y="0px"
	 viewBox="0 0 104 104" style="enable-background:new 0 0 104 104;" xml:space="preserve">
<style type="text/css">
	.st0{fill:#C7C7C7;}
</style>
<path id="Path_500" class="st0" d="M87,69.8c-0.9-0.5-1.9-0.2-2.5,0.6c-2.2,3.6-5,6.8-8.3,9.4c-1.5-0.6-3-1.2-4.6-1.7
	c4-7.5,6.2-15.9,6.3-24.4h11.8c-0.2,3.4-0.8,6.7-2,9.9c-0.3,0.9,0.2,1.9,1.1,2.2c0,0,0,0,0.1,0c0.2,0.1,0.4,0.1,0.6,0.1
	c0.8,0,1.4-0.5,1.7-1.2c1.5-4.1,2.2-8.4,2.2-12.8c0-21.9-18.6-39.7-41.4-39.7c-6.5,0-12.9,1.4-18.8,4.3c-5.1,2.5-9.7,6-13.4,10.4
	c-0.6-0.2-1.2-0.3-1.8-0.3c-3.3-0.1-5.9,2.5-6,5.8c0,1.6,0.7,3,1.8,4.1c-2.1,4.9-3.2,10.1-3.2,15.4c0,21.9,18.6,39.7,41.4,39.7
	c7.3,0,14.5-1.8,20.8-5.4C78.9,83,84,78.1,87.6,72.2C88.1,71.4,87.9,70.3,87,69.8C87,69.8,87,69.8,87,69.8L87,69.8z M68,77.1
	c-4.7-1.2-9.5-1.8-14.3-1.9v-5.7c3-0.8,4.8-4,4-7c-0.5-2-2.1-3.5-4-4v-4.8h20.5C74,62.5,71.8,70.7,68,77.1L68,77.1z M51.9,66.3
	c-1.3-0.1-2.3-1.1-2.2-2.4c0.1-1.3,1.1-2.3,2.4-2.2c1.2,0.1,2.2,1.1,2.2,2.3C54.3,65.3,53.2,66.3,51.9,66.3z M50.1,58.5
	c-3,0.8-4.8,4-4,7c0.5,2,2.1,3.5,4,4v5.7c-4.8,0.1-9.6,0.7-14.3,1.9c-3.8-6.4-6-14.6-6.2-23.4h20.5V58.5L50.1,58.5z M50.1,78.7v9.5
	c-4.5-0.6-8.7-3.4-12.2-8C41.9,79.3,46,78.8,50.1,78.7L50.1,78.7z M53.8,88.1v-9.5c4.1,0.1,8.2,0.6,12.2,1.5
	C62.4,84.8,58.2,87.5,53.8,88.1L53.8,88.1z M53.8,15.8c4.5,0.6,8.7,3.5,12.2,8c-4,0.9-8.1,1.4-12.2,1.5L53.8,15.8z M50.1,15.8v9.5
	c-4.1-0.1-8.2-0.6-12.2-1.5C41.4,19.3,45.6,16.4,50.1,15.8L50.1,15.8z M53.8,28.8c4.8-0.1,9.6-0.7,14.3-1.9c1.5,2.5,2.7,5.2,3.6,7.9
	c-1.7,1-2.7,2.9-2.8,4.9c0.1,2.9,2.2,5.3,5.1,5.7c0.2,1.6,0.3,3.2,0.3,4.9H53.8V28.8z M74.9,42c-1.3-0.1-2.3-1.1-2.2-2.4
	s1.1-2.3,2.4-2.2c1.2,0.1,2.2,1.1,2.2,2.3C77.2,41,76.2,42,74.9,42L74.9,42z M89.7,50.3H77.9c-0.1-1.8-0.2-3.6-0.4-5.4
	c2-0.9,3.4-3,3.4-5.2c-0.1-3.2-2.6-5.7-5.8-5.8c-0.9-2.8-2.1-5.5-3.5-8c1.6-0.5,3.1-1.1,4.6-1.7C84.2,30.5,89.2,40,89.7,50.3
	L89.7,50.3z M72.8,21.8c-1,0.4-2.1,0.8-3.2,1.1c-1-1.4-2.1-2.7-3.3-4c-0.2-0.2-0.5-0.5-0.7-0.7C68.2,19.1,70.6,20.3,72.8,21.8
	L72.8,21.8z M34.8,19.6c1.1-0.6,2.3-1,3.4-1.5c-1.5,1.4-2.8,3-4,4.7c-1.1-0.3-2.1-0.7-3.2-1.1C32.3,21,33.5,20.3,34.8,19.6
	L34.8,19.6z M18,30.1c1.3,0.1,2.3,1.1,2.2,2.4c-0.1,1.3-1.1,2.3-2.4,2.2c-1.2-0.1-2.2-1.1-2.2-2.3C15.6,31.2,16.7,30.1,18,30.1
	L18,30.1z M18,38.2c3.3,0.1,5.9-2.5,6-5.8c0-1.3-0.4-2.5-1.2-3.5c1.5-1.7,3.2-3.3,5-4.8c1.5,0.6,3,1.2,4.6,1.7
	c-1.9,3.3-3.3,6.9-4.3,10.6c-0.2,0.9,0.3,1.9,1.2,2.1c0,0,0,0,0,0c0.2,0,0.3,0.1,0.5,0.1c0.8,0,1.5-0.5,1.7-1.3
	c1-3.7,2.4-7.2,4.3-10.5c4.7,1.2,9.5,1.8,14.3,1.9v21.5H29.6c0.1-1.8,0.2-3.6,0.4-5.3c0.1-1-0.6-1.8-1.6-1.9c0,0,0,0,0,0
	c-1-0.1-1.9,0.5-2,1.5c-0.2,1.9-0.4,3.8-0.4,5.8H14.2c0.2-4.2,1.1-8.3,2.8-12.1C17.3,38.2,17.6,38.2,18,38.2L18,38.2z M14.2,53.7H26
	c0.1,8.5,2.3,16.9,6.3,24.4c-1.6,0.5-3.1,1.1-4.6,1.7C19.7,73.5,14.7,64,14.2,53.7L14.2,53.7z M31.1,82.2c1-0.4,2.1-0.8,3.2-1.1
	c1.2,1.7,2.5,3.2,4,4.6C35.7,84.8,33.3,83.7,31.1,82.2L31.1,82.2z M71,83.3c-1.7,0.9-3.5,1.8-5.3,2.4c1.5-1.4,2.8-3,4-4.6
	c1.1,0.3,2.1,0.7,3.2,1.1C72.2,82.6,71.6,83,71,83.3L71,83.3z"/>
<path id="Path_501" class="st0" d="M102.1,91.2H84.7c-1,0-1.8,0.7-1.8,1.7c0,1,0.7,1.8,1.7,1.8c0,0,0.1,0,0.1,0h17.4
	c1,0,1.8-0.7,1.8-1.7c0-1-0.7-1.8-1.7-1.8C102.1,91.2,102.1,91.2,102.1,91.2L102.1,91.2z"/>
<path id="Path_502" class="st0" d="M102.1,99.3h-7.7c-1,0-1.8,0.7-1.8,1.7c0,1,0.7,1.8,1.7,1.8c0,0,0.1,0,0.1,0h7.7
	c1,0,1.8-0.7,1.8-1.7c0-1-0.7-1.8-1.7-1.8C102.1,99.3,102.1,99.3,102.1,99.3L102.1,99.3z"/>
<path id="Path_503" class="st0" d="M1.9,14.4h16.5c1,0,1.8-0.7,1.8-1.7S19.5,11,18.5,11c0,0-0.1,0-0.1,0H1.9c-1,0-1.8,0.7-1.8,1.7
	s0.7,1.8,1.7,1.8C1.9,14.4,1.9,14.4,1.9,14.4z"/>
<path id="Path_504" class="st0" d="M1.9,6.4h7.7c1,0,1.8-0.7,1.8-1.7s-0.7-1.8-1.7-1.8c0,0-0.1,0-0.1,0H1.9c-1,0-1.8,0.7-1.8,1.7
	s0.7,1.8,1.7,1.8C1.9,6.4,1.9,6.4,1.9,6.4z"/>
<path id="Path_505" class="st0" d="M94.8,12.9c-0.4-0.1-0.8-0.3-1.1-0.4V6c0.6,0.2,1.2,0.4,1.7,0.8c0.7,0.5,1.6,0.4,2.1-0.3
	c0.5-0.6,0.4-1.5-0.2-2c0,0,0,0-0.1,0c-1.1-0.7-2.3-1.2-3.5-1.4V1.6c0-0.8-0.7-1.5-1.6-1.4c-0.8,0-1.4,0.7-1.4,1.4V3
	c-0.3,0-0.5,0.1-0.8,0.2c-2.1,0.6-3.7,2.4-4.1,4.5c-0.4,1.9,0.2,3.8,1.7,5c1,0.7,2,1.3,3.2,1.7v8.4c-1.2-0.1-2.3-0.5-3.3-1.2
	c-0.7-0.4-1.6-0.3-2.1,0.4c-0.4,0.6-0.3,1.5,0.4,2c0,0,0,0,0.1,0c1.5,1,3.2,1.6,4.9,1.6v1.5c0,0.8,0.7,1.5,1.6,1.4
	c0.8,0,1.4-0.7,1.4-1.4v-1.6c2.8-0.6,5-2.8,5.5-5.7C99.7,16.8,97.8,13.8,94.8,12.9L94.8,12.9z M89.3,10.5c-0.6-0.6-0.9-1.4-0.6-2.2
	c0.2-1.1,0.9-1.9,2-2.3v5.3C90.2,11,89.7,10.8,89.3,10.5z M96.2,19.4c-0.3,1.4-1.2,2.6-2.6,3.1v-7l0.1,0
	C95.5,16.1,96.5,17.7,96.2,19.4z"/>
<path id="Path_506" class="st0" d="M13.2,88.1c-0.4-0.1-0.8-0.3-1.1-0.4v-6.5c0.6,0.2,1.2,0.4,1.7,0.8c0.7,0.5,1.6,0.4,2.1-0.3
	c0.5-0.6,0.4-1.5-0.2-2c0,0,0,0-0.1,0c-1.1-0.7-2.3-1.2-3.5-1.4v-1.4c0-0.8-0.7-1.5-1.6-1.4C9.7,75.4,9,76,9,76.8v1.4
	c-0.3,0-0.5,0.1-0.8,0.2c-2.1,0.6-3.7,2.4-4.1,4.5c-0.4,1.9,0.2,3.8,1.7,5c1,0.7,2,1.3,3.2,1.7V98c-1.2-0.1-2.3-0.5-3.3-1.2
	c-0.7-0.4-1.6-0.3-2.1,0.4c-0.4,0.6-0.3,1.5,0.4,2c0,0,0,0,0.1,0c1.5,1,3.2,1.6,4.9,1.6v1.5c0,0.8,0.7,1.5,1.6,1.4
	c0.8,0,1.4-0.7,1.4-1.4v-1.6c2.8-0.6,5-2.8,5.5-5.7C18.1,92,16.2,89,13.2,88.1L13.2,88.1z M7.7,85.7c-0.6-0.6-0.9-1.4-0.6-2.2
	C7.3,82.4,8,81.5,9,81.2v5.3C8.5,86.2,8.1,86,7.7,85.7z M14.6,94.6c-0.3,1.4-1.2,2.6-2.6,3.1v-7l0.1,0
	C13.9,91.3,14.9,92.9,14.6,94.6L14.6,94.6z"/>
</svg>
