<svg xmlns="http://www.w3.org/2000/svg" width="104.103" height="78" viewBox="0 0 104.103 78">
  <g id="Group_26" data-name="Group 26" transform="translate(0 -64.19)">
    <path id="Path_44" data-name="Path 44" d="M54.847,291.552a1.524,1.524,0,0,0-2.142,0l-4.873,4.813a1.524,1.524,0,1,0,2.142,2.168l2.278-2.25v9.766a1.524,1.524,0,0,0,3.048,0v-9.766l2.279,2.25a1.524,1.524,0,1,0,2.142-2.168Z" transform="translate(-37.745 -180.783)" fill="#0f3dd5"/>
    <path id="Path_45" data-name="Path 45" d="M130.576,307.574a1.524,1.524,0,0,0,1.524-1.524v-9.766l2.279,2.25a1.524,1.524,0,0,0,2.142-2.168l-4.873-4.813a1.524,1.524,0,0,0-2.142,0l-4.873,4.813a1.524,1.524,0,1,0,2.142,2.168l2.278-2.25v9.766a1.524,1.524,0,0,0,1.524,1.524Z" transform="translate(-98.93 -180.783)" fill="#0f3dd5"/>
    <path id="Path_46" data-name="Path 46" d="M71.346,393.11a1.524,1.524,0,0,0,1.524,1.524H88.485a1.524,1.524,0,0,0,0-3.048H72.87A1.524,1.524,0,0,0,71.346,393.11Z" transform="translate(-56.839 -260.828)" fill="#0f3dd5"/>
    <path id="Path_47" data-name="Path 47" d="M249.954,286.914l1.743,1.7a1.524,1.524,0,1,0,2.126-2.184l-1.743-1.7a6.21,6.21,0,0,0-8.771.119c-.937,1.086-1.748,1.435-1.735,2.422a1.523,1.523,0,0,0,.461,1.071l6.818,6.637-6.818,6.636a1.524,1.524,0,0,0-.029,2.155l1.3,1.339a6.2,6.2,0,0,0,8.771.118l7-6.811a4.821,4.821,0,0,0,1.157-5.1c-.534-1.468-1.569-2.094-2.407-2.994a1.524,1.524,0,1,0-2.126,2.184c.995,1.017,1.465,1.291,1.669,1.852a1.746,1.746,0,0,1-.419,1.872l-7,6.811a3.154,3.154,0,0,1-4.461-.06l-.241-.247,6.848-6.666a1.523,1.523,0,0,0,0-2.184l-6.848-6.666.24-.247a3.159,3.159,0,0,1,4.461-.06Z" transform="translate(-192.455 -174.301)" fill="#0f3dd5"/>
    <path id="Path_48" data-name="Path 48" d="M78.434,81.238H78V68.312a4.126,4.126,0,0,0-4.122-4.122H4.121A4.126,4.126,0,0,0,0,68.312V82.762a1.524,1.524,0,1,0,3.048,0V68.312a1.075,1.075,0,0,1,1.074-1.074h27.19V76.5a3.075,3.075,0,0,0,3.071,3.071h9.234A3.075,3.075,0,0,0,46.689,76.5V67.238h27.19a1.075,1.075,0,0,1,1.074,1.074V81.238h-5.43a1.524,1.524,0,0,0,0,3.048h8.912A22.36,22.36,0,1,1,78.7,129H78V117.32h.7a10.676,10.676,0,1,0-.162-21.351H55.748A2.537,2.537,0,0,0,53.214,98.5v2.237L42.224,90.134,53.214,79.528v2.224a2.537,2.537,0,0,0,2.535,2.535h7.681a1.524,1.524,0,1,0,0-3.048H56.262V77.146a2.037,2.037,0,0,0-3.451-1.466L39.632,88.4a2.409,2.409,0,0,0,0,3.467l13.179,12.721a2.037,2.037,0,0,0,3.451-1.466v-4.1H74.952v38.814a1.312,1.312,0,0,1-1.311,1.311H4.359a1.312,1.312,0,0,1-1.311-1.311V88.855a1.524,1.524,0,1,0-3.048,0v48.976a4.364,4.364,0,0,0,4.359,4.359H73.642A4.364,4.364,0,0,0,78,137.831v-5.78h.7a25.407,25.407,0,1,0-.263-50.813ZM43.641,76.5a.024.024,0,0,1-.024.023H34.383a.024.024,0,0,1-.024-.023V67.238h9.281V76.5ZM78.534,99.018a7.761,7.761,0,0,1,7.788,7.76,7.662,7.662,0,0,1-7.626,7.495H78V99.018Z" fill="#0f3dd5"/>
  </g>
</svg>
