<svg xmlns="http://www.w3.org/2000/svg" width="18.475" height="18.471" viewBox="0 0 18.475 18.471">
  <path id="instagram" d="M9.165,36.325A4.736,4.736,0,1,0,13.9,41.061,4.728,4.728,0,0,0,9.165,36.325Zm0,7.815a3.079,3.079,0,1,1,3.079-3.079,3.084,3.084,0,0,1-3.079,3.079ZM15.2,36.131a1.1,1.1,0,1,1-1.1-1.1A1.1,1.1,0,0,1,15.2,36.131Zm3.137,1.121a5.466,5.466,0,0,0-1.492-3.87,5.5,5.5,0,0,0-3.87-1.492c-1.525-.087-6.1-.087-7.621,0a5.494,5.494,0,0,0-3.87,1.488A5.484,5.484,0,0,0-.01,37.248c-.087,1.525-.087,6.1,0,7.621a5.466,5.466,0,0,0,1.492,3.87,5.509,5.509,0,0,0,3.87,1.492c1.525.087,6.1.087,7.621,0a5.466,5.466,0,0,0,3.87-1.492,5.5,5.5,0,0,0,1.492-3.87c.087-1.525.087-6.092,0-7.617Zm-1.97,9.253a3.117,3.117,0,0,1-1.756,1.756c-1.216.482-4.1.371-5.445.371s-4.233.107-5.445-.371a3.117,3.117,0,0,1-1.756-1.756c-.482-1.216-.371-4.1-.371-5.445s-.107-4.233.371-5.445A3.117,3.117,0,0,1,3.72,33.86c1.216-.482,4.1-.371,5.445-.371s4.233-.107,5.445.371a3.117,3.117,0,0,1,1.756,1.756c.482,1.216.371,4.1.371,5.445S16.847,45.293,16.365,46.505Z" transform="translate(0.075 -31.825)" fill="#0f3dd5"/>
</svg>
