<svg xmlns="http://www.w3.org/2000/svg" width="157.122" height="157" viewBox="0 0 157.122 157">
  <g id="_2979677" data-name="2979677" transform="translate(0 -0.198)">
    <path id="Path_444" data-name="Path 444" d="M144.321,59.961H97.258v-58A1.757,1.757,0,0,1,99.015.2h43.548a1.757,1.757,0,0,1,1.757,1.757v58Z" transform="translate(-67.412 -0.001)" fill="#eab14d"/>
    <path id="Path_445" data-name="Path 445" d="M232.884.2V59.96h5.442v-58A1.757,1.757,0,0,0,236.569.2h-3.685Z" transform="translate(-161.417 0)" fill="#e49542"/>
    <path id="Path_446" data-name="Path 446" d="M167,13.738h-5.951a1.415,1.415,0,0,1-1.415-1.415V.2h8.781V12.323A1.415,1.415,0,0,1,167,13.738Z" transform="translate(-110.644 0)" fill="#df6b57"/>
    <path id="Path_447" data-name="Path 447" d="M263.793,196.738H191.671V125.571a2.742,2.742,0,0,1,2.743-2.743h67.622a1.757,1.757,0,0,1,1.757,1.757Z" transform="translate(-132.851 -84.998)" fill="#f1cb86"/>
    <path id="Path_448" data-name="Path 448" d="M408.957,122.828v73.91H414.4V124.585a1.757,1.757,0,0,0-1.757-1.757Z" transform="translate(-283.457 -84.998)" fill="#ecbe6b"/>
    <path id="Path_449" data-name="Path 449" d="M302.239,136.368h-5.951a1.415,1.415,0,0,1-1.415-1.415V122.828h8.781v12.125A1.415,1.415,0,0,1,302.239,136.368Z" transform="translate(-204.383 -84.998)" fill="#365e7d"/>
    <path id="Path_450" data-name="Path 450" d="M85,380.569H2.247A2.247,2.247,0,0,1,0,378.322v-54.1a1.757,1.757,0,0,1,1.757-1.757H83.131A1.868,1.868,0,0,1,85,324.334Z" transform="translate(0 -223.371)" fill="#eab14d"/>
    <path id="Path_451" data-name="Path 451" d="M259.248,322.466v58.1h5.442V324.334a1.868,1.868,0,0,0-1.868-1.868Z" transform="translate(-179.69 -223.371)" fill="#e49542"/>
    <path id="Path_452" data-name="Path 452" d="M131.549,336.006H125.6a1.415,1.415,0,0,1-1.415-1.415V322.466h8.781v12.125A1.415,1.415,0,0,1,131.549,336.006Z" transform="translate(-86.074 -223.371)" fill="#365e7d"/>
    <path id="Path_453" data-name="Path 453" d="M346.856,409.131H276.981V363.673h70.365a1.757,1.757,0,0,1,1.757,1.757v41.453A2.247,2.247,0,0,1,346.856,409.131Z" transform="translate(-191.982 -251.933)" fill="#eab14d"/>
    <path id="Path_454" data-name="Path 454" d="M494.267,363.673v45.458h3.195a2.247,2.247,0,0,0,2.247-2.247V365.431a1.757,1.757,0,0,0-1.757-1.757h-3.685Z" transform="translate(-342.587 -251.933)" fill="#e49542"/>
    <path id="Path_455" data-name="Path 455" d="M387.549,377.213H381.6a1.415,1.415,0,0,1-1.415-1.415V363.673h8.781V375.8A1.415,1.415,0,0,1,387.549,377.213Z" transform="translate(-263.513 -251.933)" fill="#df6b57"/>
    <path id="Path_456" data-name="Path 456" d="M85.375,234.076H38.312V196.7a1.757,1.757,0,0,1,1.757-1.757H85.375Z" transform="translate(-26.555 -134.981)" fill="#f1cb86"/>
    <path id="Path_457" data-name="Path 457" d="M173.938,194.941h5.442v39.135h-5.442Z" transform="translate(-120.56 -134.981)" fill="#ecbe6b"/>
    <path id="Path_458" data-name="Path 458" d="M108.05,208.481H102.1a1.415,1.415,0,0,1-1.415-1.415V194.941h8.781v12.125A1.415,1.415,0,0,1,108.05,208.481Z" transform="translate(-69.786 -134.981)" fill="#df6b57"/>
  </g>
</svg>
