<svg xmlns="http://www.w3.org/2000/svg" width="18.662" height="25.802" viewBox="0 0 18.662 25.802">
  <g id="login" transform="translate(-80.994)">
    <g id="Group_1380" data-name="Group 1380" transform="translate(80.994)">
      <path id="Path_992" data-name="Path 992" d="M90.325,0a7.554,7.554,0,0,0-7.546,7.546v4.31a.2.2,0,0,1-.108.147c-.408.136-.739.254-1.043.371a1.044,1.044,0,0,0-.635.933v9.9a1.051,1.051,0,0,0,.631.933,23.619,23.619,0,0,0,17.4,0,1.051,1.051,0,0,0,.63-.933v-9.9a1.044,1.044,0,0,0-.635-.933c-.3-.117-.635-.235-1.043-.371a.2.2,0,0,1-.108-.147V7.546A7.554,7.554,0,0,0,90.325,0ZM88.27,16.322a2.055,2.055,0,1,1,4.11,0,2.024,2.024,0,0,1-1.028,1.74v3.4a1.028,1.028,0,1,1-2.055,0v-3.4A2.024,2.024,0,0,1,88.27,16.322Zm7.006-8.776v3.718a23.554,23.554,0,0,0-9.9,0V7.546a4.951,4.951,0,0,1,9.9,0Z" transform="translate(-80.994)"/>
    </g>
  </g>
</svg>
