<?xml version="1.0" encoding="utf-8"?>
<!-- Generator: Adobe Illustrator 21.0.0, SVG Export Plug-In . SVG Version: 6.00 Build 0)  -->
<svg version="1.1" id="Layer_1" xmlns="http://www.w3.org/2000/svg" xmlns:xlink="http://www.w3.org/1999/xlink" x="0px" y="0px"
	 viewBox="0 0 283 82" style="enable-background:new 0 0 283 82;" xml:space="preserve">
<style type="text/css">
	.st0{enable-background:new    ;}
	.st1{fill:#FFFFFF;}
	.st2{fill:#DAAA53;}
</style>
<g id="logo" transform="translate(-121 -36)">
	<g class="st0">
		<path class="st1" d="M154.8,87.6v0.6v3.1v13.3c-0.3,0.3-0.7,0.6-1,0.9h0c-3.1,2.3-6.9,3.7-11.1,3.7c-10.2,0-18.5-8.3-18.5-18.5
			s8.3-18.5,18.5-18.5c4.1,0,7.8,1.3,10.8,3.5l-2.3,3.3c-2.4-1.6-5.4-3.3-8.5-3.3c-8.3,0-15,6.7-15,15c0,8.3,6.7,15,15,15
			c3.3,0,6-1.4,8.4-3.3V91.3h-7v-3.7H154.8z M133.8,81.3v18.8c-2.5-2.4-4.1-5.7-4.1-9.4S131.3,83.7,133.8,81.3z M136.8,79.4V102
			c-0.8-0.4-1.6-0.8-2.3-1.3v-20C135.2,80.2,135.9,79.7,136.8,79.4z M139.4,78.1v25.1c-0.8-0.2-1.5-0.5-2.2-0.9V79
			C137.9,78.7,138.6,78.3,139.4,78.1z M142.6,77.7v25.9c-0.9,0-1.8-0.1-2.7-0.3V78C140.8,77.8,141.7,77.7,142.6,77.7z"/>
		<path class="st1" d="M176.5,108.1h-4l-1.4-5.6h-4.9h-4.9l-1.4,5.6h-4l8.8-34.8h1.4h1.4L176.5,108.1z M170.1,98.3l-3.8-15.7
			l-3.9,15.7h3.9H170.1z M173.3,73.3l8.8,34.8h-4l-8.7-34.8H173.3z M175.9,73.3l8.8,34.8h-2l-8.8-34.8H175.9z M178.5,73.3l8.7,34.8
			h-2l-8.7-34.8H178.5z M181.1,73.3l8.8,34.8h-2l-8.8-34.8H181.1z"/>
		<path class="st1" d="M200,73.3v3.4V108h-3.7V76.8h-5.7v-3.4h5.7H200z M201.7,108V73.3h3.1V108H201.7z M205.5,108V73.3h2V108H205.5
			z M208.6,108V73.3h1.6V108H208.6z M211.1,108V73.3h1.7V108H211.1z M213.9,76.8v-3.4h5.2v3.4H213.9z"/>
		<path class="st1" d="M245,77.8l-2.8,1.7c-1.6-2.6-4.4-4.3-7.7-4.3c-5,0-9.1,4.1-9.1,9.1c0,2,0.7,3.9,1.9,5.5l0,0l1.8,1.8l5.1,5.1
			l1.6,1.6c0.5,0.4,0.9,0.8,1.3,1.3l0.1,0.1l0,0c0.7,1,1.1,2.2,1.1,3.5c0,3.4-2.7,6.1-6.1,6.1c-3.3,0-6.6-0.9-9-6l2.7-1.3
			c0.9,1.9,2.7,4.4,5.5,4.3c2,0,3.5-1.6,3.5-3.5c0-0.3-0.1-0.4-0.1-0.7l-2.9-2.8l-1.8-1.8l-3.8-3.7c-0.4-0.4-0.9-0.8-1.2-1.2
			l-0.3-0.3v0c-1.7-2.1-2.8-4.8-2.8-7.8c0-6.8,5.6-12.4,12.4-12.4C239,72,242.8,74.4,245,77.8z M245.4,89.1c0.8,0.7,1.7,1.5,2.3,2.5
			c0.9,1.4,1.3,3.1,1.3,5c0,2.1-0.7,4.1-1.7,5.7c-0.6,1-1.3,2-2.2,2.9c-2,2-4.3,3.3-6.6,3.6c0.7-1.1,1.2-2.3,1.4-3.7
			c0.1-0.5,0.1-1,0.1-1.6c0-3.3-1.8-6-3.9-7.7c-1.5-1.1-4-4-5.4-5.3c-0.6-0.5-1.2-1-1.7-1.7c-0.9-1.2-1.4-2.7-1.4-4.3
			c0-3.9,4-7.7,7-7.1L245.4,89.1z"/>
		<path class="st1" d="M251.6,108V73.3h3.7V108H251.6z M256.3,108V73.3h11.4V108H256.3z M268.6,91.3v-3.7h3.6c2.8,0,5-2.5,5-5.6
			s-2.2-5.6-5-5.6h-3.7v-3.2h3.7c4.8,0,8.7,3.9,8.7,8.7c0,3-1.6,5.7-3.9,7.3c2.6,1.8,4.3,5,4.3,8.7c0,5.6-4,10.2-9,10.2h-3.9v-3.7
			h3.8c2.9,0,5.2-2.9,5.2-6.5s-2.3-6.5-5.2-6.5H268.6z"/>
		<path class="st1" d="M292.3,92.2v9.5v6.3h-3.7V93l-8.3-19.6h4l4.3,10.1L292.3,92.2z M297.5,90.7V108h-3.5l0.1-16.4l-7.7-18.3h3.9
			L297.5,90.7z M300.2,90.3V108H298V90.6l-7.2-17.3h2.4L300.2,90.3z M302.8,89.8V108h-2.1V90.2l-7-16.9h2.2L302.8,89.8z M305.6,108
			h-2.2V89.7l-6.8-16.4h2.4l6.5,15.8V108z M306,88.8l8.2-15.5h-4l-6,11.2L306,88.8z"/>
	</g>
	<g class="st0">
		<path class="st2" d="M144.4,45.5v3.9h-5.6V66h-5V49.4h-5.5v-3.9H144.4z"/>
		<path class="st2" d="M164.2,45.5V66h-5v-8.6h-7.8V66h-5V45.5h5v7.9h7.8v-7.9H164.2z"/>
		<path class="st2" d="M172.6,49.4v4.3h6.9v3.7h-6.9V62h7.8v4h-12.8V45.5h12.8v3.9H172.6z"/>
	</g>
	<g class="st0">
		<path class="st2" d="M333.7,89.2c1.7,1.3,2.7,3,3.1,5.1h-5.2c-0.3-0.7-0.9-1.3-1.6-1.8c-0.7-0.4-1.6-0.7-2.6-0.7
			c-1.6,0-2.8,0.5-3.8,1.6c-0.9,1.1-1.4,2.5-1.4,4.3c0,2,0.5,3.5,1.5,4.5c1,1,2.4,1.6,4.2,1.6c1.2,0,2.2-0.3,3.1-1
			c0.9-0.6,1.5-1.6,1.9-2.8h-6.3v-3.6H337v4.9c-0.4,1.2-1,2.3-1.9,3.3c-0.9,1-1.9,1.9-3.3,2.5c-1.3,0.6-2.8,1-4.5,1
			c-2.1,0-3.9-0.4-5.4-1.3s-2.7-2.1-3.6-3.7c-0.8-1.6-1.3-3.4-1.3-5.4c0-2,0.4-3.8,1.3-5.4c0.8-1.6,2-2.8,3.6-3.7
			c1.5-0.9,3.3-1.3,5.4-1.3C329.9,87.3,332,87.9,333.7,89.2z"/>
		<path class="st2" d="M344.6,87.5v11.8c0,1.4,0.3,2.4,0.9,3.1c0.6,0.7,1.5,1.1,2.7,1.1s2-0.4,2.7-1.1c0.6-0.7,0.9-1.7,0.9-3.1V87.5
			h5v11.8c0,1.9-0.4,3.6-1.1,4.9c-0.8,1.3-1.8,2.3-3.1,3s-2.8,1-4.4,1c-1.6,0-3.1-0.3-4.4-1s-2.2-1.7-3-3s-1.1-3-1.1-4.9V87.5H344.6
			z"/>
		<path class="st2" d="M365,87.5V108h-5V87.5H365z"/>
		<path class="st2" d="M385.6,103.1c-0.9,1.6-2.1,2.8-3.7,3.6c-1.6,0.9-3.5,1.3-5.7,1.3h-7.7V87.5h7.7c2.2,0,4.1,0.4,5.7,1.3
			c1.6,0.9,2.8,2,3.7,3.6c0.9,1.5,1.3,3.3,1.3,5.3S386.4,101.5,385.6,103.1z M380.2,102c1.1-1,1.6-2.5,1.6-4.3
			c0-1.9-0.5-3.3-1.6-4.3c-1.1-1-2.6-1.5-4.5-1.5h-2.3v11.7h2.3C377.6,103.6,379.1,103.1,380.2,102z"/>
		<path class="st2" d="M394.6,91.4v4.3h6.9v3.7h-6.9v4.6h7.8v4h-12.8V87.5h12.8v3.9H394.6z"/>
	</g>
</g>
</svg>
