<?xml version="1.0" encoding="utf-8"?>
<!-- Generator: Adobe Illustrator 21.0.0, SVG Export Plug-In . SVG Version: 6.00 Build 0)  -->
<svg version="1.1" id="Layer_1" xmlns="http://www.w3.org/2000/svg" xmlns:xlink="http://www.w3.org/1999/xlink" x="0px" y="0px"
	 viewBox="0 0 70 70" style="enable-background:new 0 0 70 70;" xml:space="preserve">
<style type="text/css">
	.st0{fill:#FFFFFF;}
</style>
<g id="oboarding" transform="translate(-64)">
	<g id="Group_204" transform="translate(64)">
		<g id="Group_203">
			<path id="Path_403" class="st0" d="M11.2,2.5v59.5c0,3,2.4,5.4,5.4,5.4h36.8c3,0,5.4-2.4,5.4-5.4V2.5H11.2z M56.6,62.1
				c0,1.8-1.5,3.2-3.2,3.2h0H16.6c-1.8,0-3.2-1.5-3.2-3.2v0V15.5h43.3V62.1z M56.6,13.4H13.4V4.7h43.3V13.4z"/>
		</g>
	</g>
	<g id="Group_206" transform="translate(71.294 19.451)">
		<g id="Group_205">
			<path id="Path_404" class="st0" d="M10.4,0.4v8.7h10.8V0.4H10.4z M19,6.9h-6.5V2.6H19V6.9z"/>
		</g>
	</g>
	<g id="Group_208" transform="translate(71.294 43.764)">
		<g id="Group_207">
			<path id="Path_405" class="st0" d="M10.4-2.3v8.7h10.8v-8.7H10.4z M19,4.2h-6.5v-4.3H19V4.2z"/>
		</g>
	</g>
	<g id="Group_210" transform="translate(71.294 55.921)">
		<g id="Group_209">
			<path id="Path_406" class="st0" d="M10.4-3.6v8.7h10.8v-8.7H10.4z M19,2.9h-6.5v-4.3H19V2.9z"/>
		</g>
	</g>
	<g id="Group_212" transform="translate(71.29 31.577)">
		<g id="Group_211">
			<path id="Path_407" class="st0" d="M21-0.5C20.6-1,20-1.1,19.5-0.7c0,0,0,0-0.1,0.1l-6.4,5.4l-0.6-1.7c-0.2-0.6-0.8-0.9-1.4-0.7
				c-0.6,0.2-0.9,0.8-0.7,1.4L11.5,7c0.1,0.3,0.4,0.6,0.7,0.7c0.1,0,0.2,0,0.3,0c0.3,0,0.5-0.1,0.7-0.3L20.8,1
				C21.3,0.6,21.4-0.1,21-0.5z"/>
		</g>
	</g>
	<g id="Group_214" transform="translate(88.313 19.451)">
		<g id="Group_213" transform="translate(0)">
			<rect id="Rectangle_1525" x="8.9" y="0.4" class="st0" width="18.7" height="1.8"/>
		</g>
	</g>
	<g id="Group_216" transform="translate(88.313 24.313)">
		<g id="Group_215" transform="translate(0)">
			<rect id="Rectangle_1526" x="8.9" y="0" class="st0" width="18.7" height="1.8"/>
		</g>
	</g>
	<g id="Group_218" transform="translate(88.313 31.607)">
		<g id="Group_217" transform="translate(0)">
			<rect id="Rectangle_1527" x="8.9" y="-1.1" class="st0" width="18.7" height="2.7"/>
		</g>
	</g>
	<g id="Group_220" transform="translate(88.313 36.47)">
		<g id="Group_219" transform="translate(0)">
			<rect id="Rectangle_1528" x="8.9" y="-1.5" class="st0" width="18.7" height="1.8"/>
		</g>
	</g>
	<g id="Group_222" transform="translate(88.313 43.764)">
		<g id="Group_221" transform="translate(0)">
			<rect id="Rectangle_1529" x="8.9" y="-2.5" class="st0" width="18.7" height="2.7"/>
		</g>
	</g>
	<g id="Group_224" transform="translate(88.313 48.627)">
		<g id="Group_223" transform="translate(0)">
			<rect id="Rectangle_1530" x="8.9" y="-2.9" class="st0" width="18.7" height="2.7"/>
		</g>
	</g>
	<g id="Group_226" transform="translate(88.313 55.921)">
		<g id="Group_225" transform="translate(0)">
			<rect id="Rectangle_1531" x="8.9" y="-4" class="st0" width="18.7" height="2.7"/>
		</g>
	</g>
	<g id="Group_228" transform="translate(88.313 60.783)">
		<g id="Group_227" transform="translate(0)">
			<rect id="Rectangle_1532" x="8.9" y="-4.4" class="st0" width="18.7" height="2.7"/>
		</g>
	</g>
	<g id="Group_230" transform="translate(71.294 7.294)">
		<g id="Group_229">
			<path id="Path_408" class="st0" d="M16.9,1.7h-5.4c-0.6,0-1.1,0.5-1.1,1.1c0,0.6,0.5,1.1,1.1,1.1c0,0,0,0,0.1,0h5.4
				c0.6,0,1.1-0.5,1.1-1.1C18,2.2,17.5,1.7,16.9,1.7C16.9,1.7,16.9,1.7,16.9,1.7z"/>
		</g>
	</g>
	<g id="Group_232" transform="translate(101.686 7.294)">
		<g id="Group_231">
			<path id="Path_409" class="st0" d="M13.5,1.7H8.1C7.5,1.7,7,2.2,7,2.8s0.5,1.1,1.1,1.1c0,0,0,0,0.1,0h5.4c0.6,0,1.1-0.5,1.1-1.1
				C14.7,2.2,14.2,1.7,13.5,1.7C13.6,1.7,13.6,1.7,13.5,1.7z"/>
		</g>
	</g>
</g>
</svg>
