<?xml version="1.0" encoding="utf-8"?>
<!-- Generator: Adobe Illustrator 21.0.0, SVG Export Plug-In . SVG Version: 6.00 Build 0)  -->
<svg version="1.1" id="Layer_1" xmlns="http://www.w3.org/2000/svg" xmlns:xlink="http://www.w3.org/1999/xlink" x="0px" y="0px"
	 viewBox="0 0 70 70" style="enable-background:new 0 0 70 70;" xml:space="preserve">
<style type="text/css">
	.st0{fill:#FFFFFF;}
</style>
<g id="Group_236" transform="translate(-18.245 -4)">
	<g id="Group_234" transform="translate(18.245 42.378)">
		<path id="Path_428" class="st0" d="M66.3,9.7L62.7-6.9c-0.1-0.4-0.5-0.7-0.9-0.7H8.1c-0.4,0-0.8,0.3-0.9,0.7L3.7,9.7
			c-0.1,0.5,0.2,1,0.7,1.1c0.1,0,0.1,0,0.2,0h2.6v17.1c0,0.5,0.4,0.9,0.9,0.9c0,0,0,0,0,0h53.7c0.5,0,0.9-0.4,0.9-0.9c0,0,0,0,0,0
			l0,0V10.8h2.6c0.5,0,0.9-0.4,0.9-0.9C66.3,9.9,66.3,9.8,66.3,9.7L66.3,9.7z M8.9-5.8h25L30.7,9h-25L8.9-5.8z M9.1,10.8h22.4
			c0.4,0,0.8-0.3,0.9-0.7l1.7-8V27h-25L9.1,10.8z M60.9,27h-25V2.1l1.7,8c0.1,0.4,0.5,0.7,0.9,0.7h22.4L60.9,27z M39.3,9L36.1-5.8
			h25L64.2,9H39.3z"/>
		<path id="Path_429" class="st0" d="M19.8,22.2h-7c-0.5,0-0.9,0.4-0.9,0.9c0,0.5,0.4,0.9,0.9,0.9h7c0.5,0,0.9-0.4,0.9-0.9
			C20.7,22.6,20.3,22.2,19.8,22.2z"/>
		<path id="Path_430" class="st0" d="M25.5,22.2h-2.1c-0.5,0-0.9,0.4-0.9,0.9c0,0.5,0.4,0.9,0.9,0.9l0,0h2.1c0.5,0,0.9-0.4,0.9-0.9
			C26.5,22.6,26.1,22.2,25.5,22.2z"/>
		<path id="Path_431" class="st0" d="M58.3-2.9h-7c-0.5,0-0.9,0.4-0.9,0.9c0,0.5,0.4,0.9,0.9,0.9h7c0.5,0,0.9-0.4,0.9-0.9
			C59.2-2.5,58.8-2.9,58.3-2.9z"/>
		<path id="Path_432" class="st0" d="M47.6-2.9h-2.1c-0.5,0-0.9,0.4-0.9,0.9C44.6-1.5,45-1,45.5-1h2.1c0.5,0,0.9-0.4,0.9-0.9
			C48.5-2.5,48.1-2.9,47.6-2.9z"/>
	</g>
	<g id="Group_235" transform="translate(48.744 4)">
		<path id="Path_433" class="st0" d="M4.6,23.6c-0.1,0-0.1,0-0.2,0c-0.7-0.1-1.3-0.7-1.3-1.4c0-0.3-0.3-0.6-0.6-0.6
			s-0.6,0.3-0.6,0.6l0,0c0,1.2,0.8,2.3,2,2.6v0.6c0,0.3,0.3,0.6,0.6,0.6C4.8,26,5,25.7,5,25.4v-0.6c1.4-0.3,2.4-1.7,2.1-3.2
			c-0.3-1.2-1.3-2.1-2.6-2.1c-0.8,0-1.4-0.6-1.4-1.4s0.6-1.4,1.4-1.4c0.8,0,1.4,0.6,1.4,1.4l0,0c0,0.3,0.3,0.6,0.6,0.6
			c0.3,0,0.6-0.3,0.6-0.6c0-1.3-0.9-2.4-2.1-2.6v-0.6c0-0.3-0.3-0.6-0.6-0.6c-0.3,0-0.6,0.3-0.6,0.6v0.6c-1.4,0.4-2.3,1.8-1.9,3.3
			c0.3,1.2,1.4,2,2.6,2c0.8,0,1.4,0.6,1.4,1.4C5.9,22.9,5.3,23.5,4.6,23.6L4.6,23.6z"/>
		<path id="Path_434" class="st0" d="M-4.6,20.2c0,5,4.1,9.1,9.1,9.1c5,0,9.1-4.1,9.1-9.1s-4.1-9.1-9.1-9.1l0,0
			C-0.5,11.1-4.6,15.2-4.6,20.2z M4.5,12.3c4.3,0,7.8,3.5,7.8,7.8c0,4.3-3.5,7.8-7.8,7.8c-4.3,0-7.8-3.5-7.8-7.8c0,0,0,0,0,0
			C-3.3,15.8,0.2,12.3,4.5,12.3z"/>
		<path id="Path_435" class="st0" d="M5.1,9.3V3.4c0-0.3-0.3-0.6-0.6-0.6c-0.3,0-0.6,0.3-0.6,0.6l0,0v5.9c0,0.3,0.3,0.6,0.6,0.6
			C4.8,10,5.1,9.7,5.1,9.3z"/>
		<path id="Path_436" class="st0" d="M9.8,9.3V6.5c0-0.3-0.3-0.6-0.6-0.6S8.6,6.2,8.6,6.5l0,0v2.8c0,0.3,0.3,0.6,0.6,0.6
			S9.8,9.7,9.8,9.3z"/>
		<path id="Path_437" class="st0" d="M0.4,9.3V6.5c0-0.3-0.3-0.6-0.6-0.6s-0.6,0.3-0.6,0.6l0,0v2.8c0,0.3,0.3,0.6,0.6,0.6
			S0.4,9.7,0.4,9.3z"/>
	</g>
</g>
</svg>
