<svg xmlns="http://www.w3.org/2000/svg" width="22.789" height="25.802" viewBox="0 0 22.789 25.802">
  <g id="register" transform="translate(-29.896 0)">
    <path id="Path_990" data-name="Path 990" d="M121.472,102.242a22.923,22.923,0,0,0,.866,4.647c1.126,3.727,3.114,6.377,5.913,7.883,2.8-1.506,4.788-4.156,5.913-7.883a22.929,22.929,0,0,0,.866-4.647l-6.78-3.39Z" transform="translate(-86.961 -93.871)" fill="#fff"/>
    <path id="Path_991" data-name="Path 991" d="M52.672,6.03a.756.756,0,0,0-.417-.637L41.629.08a.756.756,0,0,0-.676,0L30.325,5.393a.756.756,0,0,0-.417.637,26.783,26.783,0,0,0,1.072,8.115,19.8,19.8,0,0,0,3.246,6.569,15.364,15.364,0,0,0,6.795,5.038.756.756,0,0,0,.538,0,15.364,15.364,0,0,0,6.795-5.038A19.8,19.8,0,0,0,51.6,14.145,26.782,26.782,0,0,0,52.672,6.03Zm-11.047,16.4a.756.756,0,0,1-.67,0c-3.366-1.664-5.73-4.684-7.025-8.974a24.679,24.679,0,0,1-.964-5.487.756.756,0,0,1,.416-.723l7.57-3.785a.756.756,0,0,1,.676,0L49.2,7.245a.756.756,0,0,1,.416.723,24.679,24.679,0,0,1-.964,5.486C47.355,17.745,44.991,20.765,41.626,22.429Z"/>
  </g>
</svg>
