<svg xmlns="http://www.w3.org/2000/svg" width="202.746" height="156.65" viewBox="0 0 202.746 156.65">
  <g id="Group_241" data-name="Group 241" transform="translate(0 -58.204)">
    <g id="Group_251" data-name="Group 251" transform="translate(0 58.204)">
      <g id="Group_249" data-name="Group 249">
        <g id="Group_248" data-name="Group 248">
          <g id="Group_241-2" data-name="Group 241">
            <path id="Path_485" data-name="Path 485" d="M152.39,58.2H92.116v40.4h-27.6V58.2H4.259A4.263,4.263,0,0,0,0,62.467V210.594a4.259,4.259,0,0,0,4.259,4.259H152.39a4.259,4.259,0,0,0,4.259-4.259V62.467A4.263,4.263,0,0,0,152.39,58.2Z" transform="translate(0 -58.204)" fill="#fcb982"/>
            <path id="Path_486" data-name="Path 486" d="M321.268,62.466a4.26,4.26,0,0,0-4.26-4.26h-14.2a4.262,4.262,0,0,1,4.26,4.26V89.1a3.915,3.915,0,0,0-4.685-.112l-28.172,19.9a3.944,3.944,0,0,0,0,6.437l28.172,19.9.046.032a10.376,10.376,0,0,1,4.639,8.516v66.825a4.262,4.262,0,0,1-4.26,4.26h14.2a4.26,4.26,0,0,0,4.26-4.26Z" transform="translate(-164.62 -58.205)" fill="#f5a871"/>
            <path id="Path_487" data-name="Path 487" d="M183.693,101.446H154.748a4.26,4.26,0,0,1-4.26-4.26V58.209h37.465V97.186a4.26,4.26,0,0,1-4.26,4.26Z" transform="translate(-90.897 -58.207)" fill="#d9ecfd"/>
            <path id="Path_488" data-name="Path 488" d="M219.761,58.208V97.187a4.259,4.259,0,0,1-4.26,4.26h-12.35a4.262,4.262,0,0,0,4.26-4.26V58.208Z" transform="translate(-122.706 -58.206)" fill="#b5dbfd"/>
          </g>
          <path id="Path_489" data-name="Path 489" d="M45.511,403.125a3.051,3.051,0,0,1-2.163-.9l-1.954-1.954-1.954,1.954a3.06,3.06,0,0,1-4.327-4.327l4.117-4.117a3.06,3.06,0,0,1,4.327,0l4.117,4.117a3.06,3.06,0,0,1-2.163,5.223Z" transform="translate(-20.667 -260.358)" fill="#22b43d"/>
          <path id="Path_490" data-name="Path 490" d="M45.511,367.511a3.05,3.05,0,0,1-2.163-.9l-1.954-1.954-1.954,1.954a3.06,3.06,0,1,1-4.327-4.327l4.117-4.117a3.06,3.06,0,0,1,4.327,0l4.117,4.117a3.06,3.06,0,0,1-2.163,5.223Z" transform="translate(-20.667 -238.847)" fill="#22b43d"/>
          <g id="Group_247" data-name="Group 247" transform="translate(67.689 75.706)">
            <g id="Group_245" data-name="Group 245" transform="translate(36.82)">
              <g id="Group_244" data-name="Group 244">
                <g id="Group_242" data-name="Group 242" transform="translate(0 3.539)">
                  <circle id="Ellipse_22" data-name="Ellipse 22" cx="17.857" cy="17.857" r="17.857" fill="#f2eff2"/>
                  <path id="Path_491" data-name="Path 491" d="M310.565,276.2a17.855,17.855,0,0,1-28.546,14.3q.36.016.72.016a17.856,17.856,0,0,0,10.689-32.159A17.853,17.853,0,0,1,310.565,276.2Z" transform="translate(-274.852 -258.347)" fill="#e1dde1"/>
                </g>
                <g id="Group_243" data-name="Group 243" transform="translate(3.897)">
                  <path id="Path_492" data-name="Path 492" d="M274.1,253.965l10.793,21.585a3.164,3.164,0,0,0,5.659,0l10.793-21.585a3.163,3.163,0,0,0-2.829-4.578H276.929a3.163,3.163,0,0,0-2.829,4.578Z" transform="translate(-273.761 -249.387)" fill="#64b9fc"/>
                  <path id="Path_493" data-name="Path 493" d="M313.594,253.968l-10.8,21.581a3.161,3.161,0,0,1-5.657,0l-3.1-6.2,7.69-15.38a3.165,3.165,0,0,0-2.829-4.579h11.863a3.165,3.165,0,0,1,2.828,4.579Z" transform="translate(-286.01 -249.388)" fill="#31a7fb"/>
                </g>
              </g>
            </g>
            <g id="Group_246" data-name="Group 246" transform="translate(0 48.97)">
              <path id="Path_494" data-name="Path 494" d="M318.828,379.171H298.759a3.059,3.059,0,0,1,0-6.119h20.069a3.059,3.059,0,0,1,0,6.119Z" transform="translate(-246.295 -373.052)" fill="#31a7fb"/>
              <path id="Path_495" data-name="Path 495" d="M243.47,409.172H174a3.059,3.059,0,1,1,0-6.119H243.47a3.059,3.059,0,1,1,0,6.119Z" transform="translate(-170.937 -391.173)" fill="#31a7fb"/>
            </g>
          </g>
        </g>
      </g>
      <g id="Group_250" data-name="Group 250" transform="translate(10.92 10.767)">
        <path id="Path_496" data-name="Path 496" d="M59.767,99.53a3.059,3.059,0,0,0,0-6.119H49.294a11.075,11.075,0,1,0,0,6.119Zm-21.116,1.9a4.957,4.957,0,1,1,3.892-8.016H38.652a3.059,3.059,0,1,0,0,6.119h3.892A4.946,4.946,0,0,1,38.652,101.427Z" transform="translate(-27.576 -85.395)" fill="#d68a5a"/>
        <path id="Path_497" data-name="Path 497" d="M98.2,128.233H94.26a3.059,3.059,0,0,0,0,6.119H98.2a3.059,3.059,0,1,0,0-6.119Z" transform="translate(-66.006 -111.27)" fill="#d68a5a"/>
      </g>
    </g>
    <path id="Path_498" data-name="Path 498" d="M332.266,112.435H308.594v-9.067a3.939,3.939,0,0,0-6.211-3.217l-28.172,19.9a3.939,3.939,0,0,0,0,6.434l28.172,19.9a3.939,3.939,0,0,0,6.211-3.217V134.1h23.672a13.436,13.436,0,0,1,0,26.871h-11v21.664h11a35.1,35.1,0,1,0,0-70.2Z" transform="translate(-164.62 -24.897)" fill="#22b43d"/>
    <path id="Path_499" data-name="Path 499" d="M438.165,167.385a35.14,35.14,0,0,1-35.1,35.1h-11v-.078a35.1,35.1,0,0,0-2.309-70.121h13.307a35.14,35.14,0,0,1,35.1,35.1Z" transform="translate(-235.419 -44.746)" fill="#148e25"/>
  </g>
</svg>
