<?xml version="1.0" encoding="utf-8"?>
<!-- Generator: Adobe Illustrator 21.0.0, SVG Export Plug-In . SVG Version: 6.00 Build 0)  -->
<svg version="1.1" id="Layer_1" xmlns="http://www.w3.org/2000/svg" xmlns:xlink="http://www.w3.org/1999/xlink" x="0px" y="0px"
	 viewBox="0 0 70 70" style="enable-background:new 0 0 70 70;" xml:space="preserve">
<style type="text/css">
	.st0{fill:#FFFFFF;}
</style>
<g id="_3142188" transform="translate(0 -64.233)">
	<path id="Path_423" class="st0" d="M12.7,104.1c-0.4-0.4-1-0.4-1.4,0l-3.1,3.1c-0.4,0.4-0.4,1,0,1.4c0.4,0.4,1,0.4,1.4,0l1.5-1.4
		v6.2c0,0.5,0.4,1,1,1c0.5,0,1-0.4,1-1v-6.2l1.5,1.4c0.4,0.4,1,0.4,1.4,0c0.4-0.4,0.4-1,0-1.4L12.7,104.1z"/>
	<path id="Path_424" class="st0" d="M22,114.3c0.5,0,1-0.4,1-1l0,0v-6.2l1.5,1.4c0.4,0.4,1,0.4,1.4,0c0.4-0.4,0.4-1,0-1.4l0,0
		l-3.1-3.1c-0.4-0.4-1-0.4-1.4,0l-3.1,3.1c-0.4,0.4-0.4,1,0,1.4c0.4,0.4,1,0.4,1.4,0l1.5-1.4v6.2C21,113.8,21.5,114.3,22,114.3
		C22,114.3,22,114.3,22,114.3z"/>
	<path id="Path_425" class="st0" d="M11.1,117.8c0,0.5,0.4,1,1,1h0H22c0.5,0,1-0.4,1-1c0-0.5-0.4-1-1-1h-9.9
		C11.5,116.8,11.1,117.2,11.1,117.8L11.1,117.8z"/>
	<path id="Path_426" class="st0" d="M38.5,105.2l1.1,1.1c0.4,0.4,1,0.4,1.4,0c0.4-0.4,0.4-1,0-1.4l0,0l-1.1-1.1
		c-1.6-1.5-4.1-1.5-5.6,0.1c-0.6,0.7-1.1,0.9-1.1,1.5c0,0.3,0.1,0.5,0.3,0.7l4.3,4.2l-4.3,4.2c-0.4,0.4-0.4,1,0,1.4c0,0,0,0,0,0
		l0.8,0.9c1.5,1.6,4,1.6,5.6,0.1c0,0,0,0,0,0l4.5-4.3c0.9-0.8,1.2-2.1,0.7-3.2c-0.3-0.9-1-1.3-1.5-1.9c-0.4-0.4-1-0.4-1.4,0
		c-0.4,0.4-0.4,1,0,1.4c0.6,0.6,0.9,0.8,1.1,1.2c0.2,0.4,0.1,0.9-0.3,1.2l-4.5,4.3c-0.8,0.8-2.1,0.8-2.8,0c0,0,0,0,0,0l-0.2-0.2
		l4.4-4.2c0.4-0.4,0.4-1,0-1.4c0,0,0,0,0,0l-4.4-4.2l0.2-0.2C36.4,104.5,37.7,104.5,38.5,105.2L38.5,105.2z"/>
	<path id="Path_427" class="st0" d="M51.8,85.2h-0.3V69c0-1.4-1.2-2.6-2.6-2.6H4.5c-1.4,0-2.6,1.2-2.6,2.6v36.2c0,0.5,0.4,1,1,1
		c0.5,0,1-0.4,1-1V69c0-0.4,0.3-0.7,0.7-0.7h17.3v5.9c0,1.1,0.9,2,2,2h5.9c1.1,0,2-0.9,2-2v-5.9h17.3c0.4,0,0.7,0.3,0.7,0.7v16.2
		h-3.5c-0.5,0-1,0.4-1,1s0.4,1,1,1c0,0,0,0,0,0h5.7c7.9-0.1,14.3,6.2,14.4,14.1c0.1,7.9-6.2,14.3-14.1,14.4c0,0-0.1,0-0.1,0h-0.4
		v-7.4H52c3.8,0,6.8-3.1,6.7-6.9c0-3.8-3.1-6.8-6.9-6.7l0,0H37.4c-0.9,0-1.6,0.7-1.6,1.6v1.4l-7-6.8l7-6.8v1.4
		c0,0.9,0.7,1.6,1.6,1.6h4.9c0.5,0,1-0.4,1-1s-0.4-1-1-1c0,0,0,0,0,0h-4.6v-2.6c0-0.7-0.6-1.3-1.3-1.3c-0.3,0-0.7,0.1-0.9,0.4
		l-8.4,8.1c-0.6,0.6-0.6,1.6,0,2.2c0,0,0,0,0,0l8.4,8.1c0.5,0.5,1.3,0.5,1.8,0c0.2-0.2,0.4-0.6,0.4-0.9v-2.6h11.9v32.7
		c0,0.5-0.4,0.8-0.8,0.8H4.6c-0.5,0-0.8-0.4-0.8-0.8v-19.2c0-0.5-0.4-1-1-1c-0.5,0-1,0.4-1,1v19.2c0,1.5,1.2,2.8,2.8,2.8
		c0,0,0,0,0,0h44.1c1.5,0,2.8-1.2,2.8-2.8l0,0v-11.7H52c8.9,0,16.2-7.3,16.2-16.2c0-8.9-7.3-16.2-16.2-16.2
		C51.9,85.2,51.9,85.2,51.8,85.2L51.8,85.2z M29.7,82.2C29.7,82.2,29.6,82.2,29.7,82.2C29.6,82.2,29.6,82.2,29.7,82.2l-5.9,0
		c0,0,0,0,0,0l0,0v-5.9h5.9C29.7,76.3,29.7,82.2,29.7,82.2z M51.9,96.6c2.7,0,5,2.2,5,4.9c0,0,0,0,0,0c-0.1,2.6-2.2,4.8-4.9,4.8
		h-0.4v-9.7H51.9z"/>
</g>
</svg>
