<?xml version="1.0" encoding="utf-8"?>
<!-- Generator: Adobe Illustrator 21.0.0, SVG Export Plug-In . SVG Version: 6.00 Build 0)  -->
<svg version="1.1" id="Layer_1" xmlns="http://www.w3.org/2000/svg" xmlns:xlink="http://www.w3.org/1999/xlink" x="0px" y="0px"
	 viewBox="0 0 70 70" style="enable-background:new 0 0 70 70;" xml:space="preserve">
<style type="text/css">
	.st0{fill:#FFFFFF;}
</style>
<g id="search-our" transform="translate(-18.181)">
	<g id="Group_233" transform="translate(18.181 0)">
		<path id="Path_410" class="st0" d="M7.2,38.2c0.5,0,1-0.4,1-1V12c0-0.2,0.2-0.3,0.3-0.3h48.1c0.2,0,0.3,0.2,0.3,0.3v12
			c0,0.5,0.5,1,1,1c0.5,0,0.9-0.4,1-1V12c0-0.9-0.5-1.7-1.3-2.1V7.7c0-0.9-0.5-1.7-1.3-2.1V3.5c0-1.3-1-2.3-2.3-2.3H11.2
			c-1.3,0-2.3,1-2.3,2.3v2.2C8.1,6,7.5,6.8,7.5,7.7v2.2c-0.8,0.4-1.3,1.2-1.3,2.1v25.2C6.2,37.8,6.6,38.2,7.2,38.2z M9.5,7.7
			c0-0.2,0.2-0.3,0.3-0.3l0,0h45.4c0.2,0,0.3,0.2,0.3,0.3v1.9H9.5V7.7z M10.9,3.5c0-0.2,0.2-0.3,0.3-0.3l0,0H54
			c0.2,0,0.3,0.2,0.3,0.3v1.9H10.9V3.5z"/>
		<path id="Path_411" class="st0" d="M44.5,34.5c-5-5-13.1-5-18,0c-5,5-5,13.1,0,18c5,5,13.1,5,18,0c2.4-2.4,3.7-5.6,3.7-9
			C48.2,40.2,46.9,36.9,44.5,34.5z M43.1,51.2c-4.2,4.2-11,4.2-15.2,0s-4.2-11,0-15.2s11-4.2,15.2,0c2,2,3.2,4.8,3.2,7.6
			C46.2,46.4,45.1,49.2,43.1,51.2L43.1,51.2z"/>
		<path id="Path_412" class="st0" d="M66.2,67.2l-4.5-4.5V50.5c0-0.5-0.4-1-1-1H59V28.6c0-0.5-0.5-1-1-1c-0.5,0-0.9,0.4-1,1v20.9
			h-5.6c3.3-8.8-1.2-18.6-10-21.9c-5.2-1.9-11-1.2-15.6,1.9V15c0-0.5-0.4-1-1-1H11.5c-0.5,0-1,0.4-1,1v16.6c0,0.5,0.4,1,1,1h11
			c-4,4.7-5.1,11.2-3,17H8.2v-7.7c0-0.5-0.5-1-1-1c-0.5,0-0.9,0.4-1,1v7.7H4.5c-0.5,0-1,0.4-1,1c0,0,0,0,0,0l0.1,17.4
			c0,0.5,0.4,1,1,1h5.9c0.5,0,1-0.4,1-1c0-0.5-0.4-1-1-1c0,0,0,0-0.1,0H5.7L5.5,51.5h14.9c4.4,8.3,14.7,11.5,23,7.1l2.9,2.9
			c0.4,0.4,1,0.4,1.4,0c0,0,0,0,0,0l0.4-0.4l2,2l-0.4,0.4c-0.4,0.4-0.4,1,0,1.4c0,0,0,0,0,0l2,2H15.2c-0.5,0-1,0.5-1,1
			c0,0.5,0.4,0.9,1,1h38.9c0.5,0,1-0.4,1-1c0-0.3-0.1-0.5-0.3-0.7l-3-3l4.3-4.3l8.7,8.7c0.4,0.4,1,0.4,1.4,0
			C66.6,68.2,66.6,67.6,66.2,67.2C66.2,67.2,66.2,67.2,66.2,67.2L66.2,67.2z M12.5,15.9h11.4v14.6H12.5V15.9z M24.8,54.2
			c-5.9-5.9-5.9-15.4,0-21.3s15.4-5.9,21.3,0s5.9,15.4,0,21.3c0,0,0,0,0,0C40.2,60.1,30.7,60.1,24.8,54.2z M45.2,57.5
			c1.7-1.2,3.1-2.6,4.3-4.3l1.8,1.8L47,59.3L45.2,57.5z M49.5,59.6l2-2l2,2l-2,2L49.5,59.6z M55.4,57.8l-0.4,0.4l-2-2l0.4-0.4
			c0.4-0.4,0.4-1,0-1.4c0,0,0,0,0,0l-2.9-2.9l0,0h9.1v9.2l-2.9-2.9C56.4,57.4,55.8,57.4,55.4,57.8L55.4,57.8z"/>
		<path id="Path_413" class="st0" d="M53.7,14H29.4c-0.5,0-1,0.4-1,1c0,0.5,0.4,1,1,1c0,0,0,0,0.1,0h24.3c0.5,0,1-0.4,1-1
			C54.7,14.4,54.3,14,53.7,14C53.7,14,53.7,14,53.7,14z"/>
		<path id="Path_414" class="st0" d="M54.7,19.2c0-0.6-0.4-1-1-1H29.4c-0.5,0-1,0.4-1,1c0,0.5,0.4,1,1,1c0,0,0,0,0.1,0h24.3
			C54.2,20.2,54.7,19.8,54.7,19.2z"/>
		<path id="Path_415" class="st0" d="M29.4,22.5c-0.5,0-1,0.4-1,1c0,0.5,0.4,1,1,1c0,0,0,0,0.1,0h16.3c0.5,0,1-0.4,1-1
			c0-0.5-0.4-1-1-1c0,0,0,0-0.1,0H29.4z"/>
	</g>
</g>
</svg>
