<svg xmlns="http://www.w3.org/2000/svg" width="22.941" height="22.938" viewBox="0 0 22.941 22.938">
  <path id="signup-icon" d="M13.285,16.035a8.508,8.508,0,0,0-1.787-.954,4.561,4.561,0,0,0,1.484-3.009,6.745,6.745,0,0,1,8.552-.7A.9.9,0,1,0,22.559,9.9a8.515,8.515,0,0,0-1.787-.954,4.57,4.57,0,1,0-6.152-.01q-.188.072-.373.153A8.508,8.508,0,0,0,12.668,10a4.569,4.569,0,1,0-7.331,5.065,8.617,8.617,0,0,0-5.2,5.361,2.688,2.688,0,0,0,2.559,3.512h7.8a.9.9,0,0,0,0-1.792h-7.8a.9.9,0,0,1-.853-1.171A6.913,6.913,0,0,1,8.407,16.3,6.7,6.7,0,0,1,12.26,17.5a.9.9,0,1,0,1.025-1.47ZM17.7,2.79a2.778,2.778,0,1,1-2.778,2.778A2.781,2.781,0,0,1,17.7,2.79ZM8.427,8.922A2.778,2.778,0,1,1,5.649,11.7,2.781,2.781,0,0,1,8.427,8.922ZM22.942,19.68a.9.9,0,0,1-.9.9H19.582V23.04a.9.9,0,1,1-1.792,0V20.576H15.326a.9.9,0,0,1,0-1.792H17.79V16.32a.9.9,0,0,1,1.792,0v2.464h2.464A.9.9,0,0,1,22.942,19.68Z" transform="translate(-0.002 -0.998)" fill="#fff"/>
</svg>
