<svg xmlns="http://www.w3.org/2000/svg" width="34.363" height="27.846" viewBox="0 0 34.363 27.846">
  <g id="collection" transform="translate(-43 -252)">
    <g id="Group_1396" data-name="Group 1396" transform="translate(19.318 252)">
      <path id="Path_420" data-name="Path 420" d="M48.044,12.567a.787.787,0,0,1-1.573.035,4.715,4.715,0,0,0-1.715-3.82c-2.2-1.616-6.051-.883-8.674-.121a.792.792,0,0,1-.438,0c-2.622-.761-6.472-1.5-8.674.121a4.715,4.715,0,0,0-1.715,3.82.787.787,0,1,1-1.573-.035,5.953,5.953,0,0,1,3.675-5.776,8.926,8.926,0,0,1,3.481-.543c-.005-.005.042.055-1.78-2.382A2.359,2.359,0,0,1,30.873,0a.786.786,0,0,1,.577.252,5.832,5.832,0,0,0,2.3,1.343,3.794,3.794,0,0,1,1.862-1.5.783.783,0,0,1,.5,0,3.794,3.794,0,0,1,1.862,1.5A5.832,5.832,0,0,0,40.277.25.778.778,0,0,1,40.852,0a2.359,2.359,0,0,1,1.815,3.867L40.889,6.248a9.906,9.906,0,0,1,3.076.4c2.683.863,4.018,3.144,4.079,5.92Z" transform="translate(0 0)" fill="#daaa53"/>
      <path id="Path_421" data-name="Path 421" d="M64.71,184.493l-3.922-5.4a13.263,13.263,0,0,0-3.9.39,2.655,2.655,0,0,0,.511.509.787.787,0,1,1-.944,1.258,4.408,4.408,0,0,1-1.175-1.352,2.354,2.354,0,0,1-.9,0,4.408,4.408,0,0,1-1.175,1.352.787.787,0,0,1-.944-1.258,2.637,2.637,0,0,0,.511-.509,13.25,13.25,0,0,0-3.9-.39l-3.922,5.4A7.071,7.071,0,0,0,47.8,194.926a16.257,16.257,0,0,0,14.049,0A7.072,7.072,0,0,0,64.71,184.493Zm-9.095,6.42v.157a.787.787,0,1,1-1.573.008V191a2.847,2.847,0,0,1-1.112-.473.79.79,0,0,1,.861-1.324,1.392,1.392,0,0,0,1.032.267.747.747,0,0,0,.747-.635.523.523,0,0,0-.394-.62,6.566,6.566,0,0,1-1.8-.868,1.976,1.976,0,0,1,.663-3.305v-.106a.787.787,0,1,1,1.573-.008V184a2.289,2.289,0,0,1,.887.476c-.006.006-.006,0,0,.008a.786.786,0,0,1-1.064,1.159.95.95,0,0,0-.838-.116.449.449,0,0,0-.288.434.228.228,0,0,0,.039.147,5.407,5.407,0,0,0,1.35.623,2.215,2.215,0,0,1-.085,4.186Z" transform="translate(-18.965 -169.676)" fill="#daaa53"/>
    </g>
    <g id="Group_1397" data-name="Group 1397" transform="translate(41.5 266.423)">
      <path id="Path_420-2" data-name="Path 420" d="M35.862,6.283a.393.393,0,0,1-.786.017,2.358,2.358,0,0,0-.858-1.91c-1.1-.808-3.025-.441-4.337-.061a.4.4,0,0,1-.219,0c-1.311-.381-3.236-.748-4.337.061a2.358,2.358,0,0,0-.858,1.91.393.393,0,1,1-.786-.017A2.976,2.976,0,0,1,25.519,3.4a4.463,4.463,0,0,1,1.741-.271l-.89-1.191A1.18,1.18,0,0,1,27.277,0a.393.393,0,0,1,.289.126A2.916,2.916,0,0,0,28.717.8a1.9,1.9,0,0,1,.931-.751.391.391,0,0,1,.249,0A1.9,1.9,0,0,1,30.827.8,2.916,2.916,0,0,0,31.979.125.389.389,0,0,1,32.266,0a1.18,1.18,0,0,1,.908,1.933l-.889,1.191a4.953,4.953,0,0,1,1.538.2,2.959,2.959,0,0,1,2.039,2.96Z" transform="translate(0 0)" fill="#daaa53"/>
      <path id="Path_421-2" data-name="Path 421" d="M54.2,181.779l-1.961-2.7a6.632,6.632,0,0,0-1.951.195,1.327,1.327,0,0,0,.256.254.393.393,0,0,1-.472.629,2.2,2.2,0,0,1-.588-.676,1.177,1.177,0,0,1-.45,0,2.2,2.2,0,0,1-.588.676.393.393,0,0,1-.472-.629,1.318,1.318,0,0,0,.255-.254,6.625,6.625,0,0,0-1.951-.195l-1.961,2.7A3.536,3.536,0,0,0,45.75,187a8.129,8.129,0,0,0,7.025,0A3.536,3.536,0,0,0,54.2,181.779Zm-4.547,3.21v.078a.393.393,0,1,1-.786,0v-.038a1.423,1.423,0,0,1-.556-.236.395.395,0,0,1,.431-.662.7.7,0,0,0,.516.133.373.373,0,0,0,.373-.317.262.262,0,0,0-.2-.31,3.283,3.283,0,0,1-.9-.434.988.988,0,0,1,.332-1.653V181.5a.393.393,0,1,1,.786,0v.033a1.144,1.144,0,0,1,.443.238s0,0,0,0a.393.393,0,0,1-.532.579.475.475,0,0,0-.419-.058.225.225,0,0,0-.144.217.114.114,0,0,0,.019.073,2.7,2.7,0,0,0,.675.311,1.107,1.107,0,0,1-.043,2.093Z" transform="translate(-19.49 -174.371)" fill="#daaa53"/>
    </g>
  </g>
</svg>
