<?xml version="1.0" encoding="utf-8"?>
<!-- Generator: Adobe Illustrator 21.0.0, SVG Export Plug-In . SVG Version: 6.00 Build 0)  -->
<svg version="1.1" id="Layer_1" xmlns="http://www.w3.org/2000/svg" xmlns:xlink="http://www.w3.org/1999/xlink" x="0px" y="0px"
	 viewBox="0 0 512 512" style="enable-background:new 0 0 512 512;" xml:space="preserve">
<style type="text/css">
	.st0{fill:#AA8A31;}
</style>
<g>
	<path class="st0" d="M490.6,237.9L304.9,52.2c-26.9-26.9-70.8-26.9-97.7,0L21.4,237.9c-5.8,5.8-5.8,15.3,0,21.1
		c5.8,5.8,15.3,5.8,21.1,0l11.8-11.8v189.9c0,23.7,19.2,42.9,42.9,42.9H172c5.2,0,9.3-4.2,9.3-9.3V332.5c0-25.8,20.9-46.7,46.7-46.7
		h56c25.8,0,46.7,20.9,46.7,46.7v138.2c0,5.2,4.2,9.3,9.3,9.3h74.7c23.7,0,42.9-19.2,42.9-42.9V247.2l11.8,11.8
		c2.9,2.9,6.7,4.4,10.6,4.4c3.8,0,7.6-1.5,10.6-4.4C496.5,253.2,496.5,243.8,490.6,237.9L490.6,237.9z"/>
</g>
</svg>
