<svg xmlns="http://www.w3.org/2000/svg" width="80.74" height="80.677" viewBox="0 0 80.74 80.677">
  <g id="my-collection" transform="translate(0 -0.198)">
    <path id="Path_1116" data-name="Path 1116" d="M121.442,30.909H97.258V1.1a.9.9,0,0,1,.9-.9h22.378a.9.9,0,0,1,.9.9V30.909Z" transform="translate(-81.921 -0.001)" fill="#eab14d"/>
    <path id="Path_1117" data-name="Path 1117" d="M232.884.2v30.71h2.8V1.1a.9.9,0,0,0-.9-.9h-1.893Z" transform="translate(-196.16)" fill="#e49542"/>
    <path id="Path_1118" data-name="Path 1118" d="M163.416,7.156h-3.058a.727.727,0,0,1-.727-.727V.2h4.512V6.429A.727.727,0,0,1,163.416,7.156Z" transform="translate(-134.458 0)" fill="#df6b57"/>
    <path id="Path_1119" data-name="Path 1119" d="M228.732,160.808H191.671V124.237a1.409,1.409,0,0,1,1.409-1.409h34.749a.9.9,0,0,1,.9.9Z" transform="translate(-161.446 -103.292)" fill="#f1cb86"/>
    <path id="Path_1120" data-name="Path 1120" d="M408.957,122.828v37.98h2.8V123.731a.9.9,0,0,0-.9-.9Z" transform="translate(-344.467 -103.292)" fill="#ecbe6b"/>
    <path id="Path_1121" data-name="Path 1121" d="M298.658,129.786H295.6a.727.727,0,0,1-.727-.727v-6.231h4.512v6.231A.727.727,0,0,1,298.658,129.786Z" transform="translate(-248.373 -103.292)" fill="#365e7d"/>
    <path id="Path_1122" data-name="Path 1122" d="M43.678,352.323H1.155A1.155,1.155,0,0,1,0,351.169v-27.8a.9.9,0,0,1,.9-.9H42.718a.96.96,0,0,1,.96.96Z" transform="translate(0 -271.448)" fill="#eab14d"/>
    <path id="Path_1123" data-name="Path 1123" d="M259.248,322.466v29.857h2.8v-28.9a.96.96,0,0,0-.96-.96Z" transform="translate(-218.366 -271.448)" fill="#e49542"/>
    <path id="Path_1124" data-name="Path 1124" d="M127.968,329.424H124.91a.727.727,0,0,1-.727-.727v-6.23H128.7v6.23a.727.727,0,0,1-.727.727Z" transform="translate(-104.6 -271.448)" fill="#365e7d"/>
    <path id="Path_1125" data-name="Path 1125" d="M312.888,387.032H276.981V363.673h36.158a.9.9,0,0,1,.9.9v21.3A1.155,1.155,0,0,1,312.888,387.032Z" transform="translate(-233.303 -306.157)" fill="#eab14d"/>
    <path id="Path_1126" data-name="Path 1126" d="M494.267,363.673v23.359h1.642a1.155,1.155,0,0,0,1.155-1.155v-21.3a.9.9,0,0,0-.9-.9h-1.893Z" transform="translate(-416.324 -306.157)" fill="#e49542"/>
    <path id="Path_1127" data-name="Path 1127" d="M383.968,370.631H380.91a.727.727,0,0,1-.727-.727v-6.23H384.7v6.23A.727.727,0,0,1,383.968,370.631Z" transform="translate(-320.23 -306.157)" fill="#df6b57"/>
    <path id="Path_1128" data-name="Path 1128" d="M62.5,215.051H38.312V195.844a.9.9,0,0,1,.9-.9H62.5Z" transform="translate(-32.27 -164.033)" fill="#f1cb86"/>
    <path id="Path_1129" data-name="Path 1129" d="M173.938,194.941h2.8v20.11h-2.8Z" transform="translate(-146.509 -164.033)" fill="#ecbe6b"/>
    <path id="Path_1130" data-name="Path 1130" d="M104.469,201.9h-3.058a.727.727,0,0,1-.727-.727v-6.23H105.2v6.23A.727.727,0,0,1,104.469,201.9Z" transform="translate(-84.807 -164.033)" fill="#df6b57"/>
  </g>
</svg>
