<svg xmlns="http://www.w3.org/2000/svg" width="95.327" height="80.677" viewBox="0 0 95.327 80.677">
  <g id="my-price" transform="translate(0 -39.342)">
    <path id="Path_1131" data-name="Path 1131" d="M1.3,294.324H12.584a1.3,1.3,0,0,0,1.3-1.3v-3.867l.963-1.383V260.042l-.963-1.092v-4.121a1.3,1.3,0,0,0-1.3-1.3H1.3a1.3,1.3,0,0,0-1.3,1.3v38.193a1.3,1.3,0,0,0,1.3,1.3Z" transform="translate(0 -174.306)" fill="#54b0fd"/>
    <path id="Path_1132" data-name="Path 1132" d="M306.372,46.941l-17.088-7.119a6.251,6.251,0,0,0-4.795,0L267.4,46.941a5.775,5.775,0,0,0-3.622,5.3V82.875l.006,31.109v0a5.912,5.912,0,0,0,6.014,5.554h34.176a5.9,5.9,0,0,0,6.02-5.777V52.24a5.776,5.776,0,0,0-3.622-5.3ZM286.6,56.923a4.044,4.044,0,1,1,4.044-4.044A4.044,4.044,0,0,1,286.6,56.923Z" transform="translate(-214.667 -0.002)" fill="#ffce84"/>
    <path id="Path_1133" data-name="Path 1133" d="M277.263,113.984v-3.677a10.515,10.515,0,0,0,1.239-9.013,10.52,10.52,0,0,0,1.588-9.473,10.512,10.512,0,0,0-2.832-15.22V52.238a5.775,5.775,0,0,1,3.622-5.3l12.746-5.311-4.342-1.808a6.251,6.251,0,0,0-4.795,0L267.4,46.939a5.775,5.775,0,0,0-3.622,5.3V82.873h0l.006,31.109v0h0a5.911,5.911,0,0,0,6.014,5.554h13.479a5.912,5.912,0,0,1-6.014-5.554Z" transform="translate(-214.666 0)" fill="#fab752"/>
    <path id="Path_1134" data-name="Path 1134" d="M358.913,261.08l-6.5-2.111a1.366,1.366,0,0,1-.946-1.3v-2.852a2,2,0,0,1,2-2h3.506a2,2,0,0,1,2,2,1.444,1.444,0,0,0,2.888,0,4.89,4.89,0,0,0-4.884-4.884h-.309v-3.174a1.444,1.444,0,0,0-2.888,0v3.174h-.309a4.89,4.89,0,0,0-4.884,4.884v2.852a4.247,4.247,0,0,0,2.942,4.049l6.5,2.111a1.365,1.365,0,0,1,.946,1.3v1.991a2.462,2.462,0,0,1-2.459,2.459h-2.58a2.462,2.462,0,0,1-2.459-2.459,1.444,1.444,0,0,0-2.888,0,5.353,5.353,0,0,0,5.193,5.344v3.178a1.444,1.444,0,0,0,2.888,0v-3.178a5.353,5.353,0,0,0,5.193-5.344v-1.991A4.247,4.247,0,0,0,358.913,261.08Z" transform="translate(-283.68 -167.622)" fill="#717171"/>
    <path id="Path_1135" data-name="Path 1135" d="M110.212,182.988h2.375a4.75,4.75,0,0,1,0,9.5H87.111a5.826,5.826,0,0,1-3.543-1.215c-2.685-2.059-5.527-2.5-8.981-2.7v-30.2c8.123-9.281,18.416-10.152,17.7-24.021a4.2,4.2,0,0,1,8.2-1.464c2.18,7.146,2.725,14.237-.153,21.6H117.7a4.75,4.75,0,0,1,0,9.5h-1.608a4.75,4.75,0,1,1,0,9.5h-1.579a4.75,4.75,0,0,1,0,9.5h-4.3Z" transform="translate(-60.701 -73.724)" fill="#fff3de"/>
    <path id="Path_1136" data-name="Path 1136" d="M110.212,182.988h2.375a4.75,4.75,0,0,1,0,9.5H87.111a5.826,5.826,0,0,1-3.543-1.215c-2.685-2.059-5.527-2.5-8.981-2.7v-30.2c8.123-9.281,18.416-10.152,17.7-24.021a4.2,4.2,0,0,1,8.2-1.464c2.18,7.146,2.725,14.237-.153,21.6H117.7a4.75,4.75,0,0,1,0,9.5h-1.608a4.75,4.75,0,1,1,0,9.5h-1.579a4.75,4.75,0,0,1,0,9.5h-4.3Z" transform="translate(-60.701 -73.724)" fill="#ffe6ba"/>
    <path id="Path_1137" data-name="Path 1137" d="M102.238,146.06c-3.161,3.685-7.964,6.1-12.416,10.46a5.808,5.808,0,0,0-1.751,4.144v22.793a5.824,5.824,0,0,0,4.426,5.684,11.887,11.887,0,0,1,5.93,3.348H87.114a5.827,5.827,0,0,1-3.542-1.214c-2.685-2.058-5.527-2.495-8.981-2.7v-30.2c8.128-9.287,18.43-10.154,17.693-24.051a4.2,4.2,0,0,1,6.686-3.568,4.14,4.14,0,0,1,1.516,2.133A36.286,36.286,0,0,1,102.238,146.06Z" transform="translate(-60.704 -73.726)" fill="#fdd9a9"/>
  </g>
</svg>
