<svg xmlns="http://www.w3.org/2000/svg" width="100.44" height="89.711" viewBox="0 0 100.44 89.711">
  <g id="my-ratings" transform="translate(0 -27.347)">
    <g id="Group_1418" data-name="Group 1418" transform="translate(6.171 86.463)">
      <g id="Group_1417" data-name="Group 1417">
        <g id="Group_1416" data-name="Group 1416">
          <g id="Group_1415" data-name="Group 1415">
            <g id="Group_1414" data-name="Group 1414">
              <g id="Group_1413" data-name="Group 1413">
                <g id="Group_1411" data-name="Group 1411" transform="translate(0 9.953)">
                  <g id="Group_1409" data-name="Group 1409" transform="translate(70.192)">
                    <path id="Path_1152" data-name="Path 1152" d="M389.266,379.43V395.7a2.143,2.143,0,0,0,1.916,2.129,116.354,116.354,0,0,1,13.376,2.185,2.139,2.139,0,0,0,2.614-2.088V384.121a2.145,2.145,0,0,0-1.647-2.084,117.343,117.343,0,0,0-16.259-2.607Z" transform="translate(-389.266 -379.43)" fill="#1c96f9"/>
                    <path id="Path_1153" data-name="Path 1153" d="M453.9,388.8c-1.42-.342-2.907-.661-4.453-.957v18.209c1.2.229,2.363.47,3.486.728a2.139,2.139,0,0,0,2.614-2.088V390.884A2.145,2.145,0,0,0,453.9,388.8Z" transform="translate(-437.644 -386.193)" fill="#1785f8"/>
                  </g>
                  <g id="Group_1410" data-name="Group 1410">
                    <path id="Path_1154" data-name="Path 1154" d="M49.364,379.43V395.7a2.143,2.143,0,0,1-1.916,2.129,116.355,116.355,0,0,0-13.376,2.185,2.139,2.139,0,0,1-2.614-2.088V384.121a2.145,2.145,0,0,1,1.647-2.084A117.339,117.339,0,0,1,49.364,379.43Z" transform="translate(-31.458 -379.43)" fill="#1c96f9"/>
                    <path id="Path_1155" data-name="Path 1155" d="M87.874,380.248v18.209q2.392-.349,4.923-.625a2.143,2.143,0,0,0,1.916-2.129V379.43Q91.169,379.765,87.874,380.248Z" transform="translate(-76.807 -379.43)" fill="#1785f8"/>
                  </g>
                </g>
                <g id="Group_1412" data-name="Group 1412" transform="translate(10.846)">
                  <path id="Path_1156" data-name="Path 1156" d="M86.747,347.9a2.14,2.14,0,0,0,2.617,2.087A140.772,140.772,0,0,1,119.95,346.9a140.763,140.763,0,0,1,30.585,3.082,2.139,2.139,0,0,0,2.617-2.087V334.09a2.144,2.144,0,0,0-1.644-2.083A138.768,138.768,0,0,0,119.95,328.7a138.767,138.767,0,0,0-31.559,3.311,2.144,2.144,0,0,0-1.644,2.083V347.9Z" transform="translate(-86.747 -328.696)" fill="#64b9fc"/>
                  <path id="Path_1157" data-name="Path 1157" d="M394.724,340.924c-1.709-.412-3.515-.791-5.405-1.134V358c1.535.279,3.015.581,4.432.905a2.14,2.14,0,0,0,2.618-2.087V343.008A2.144,2.144,0,0,0,394.724,340.924Z" transform="translate(-329.963 -337.614)" fill="#31a7fb"/>
                </g>
              </g>
            </g>
          </g>
        </g>
      </g>
    </g>
    <g id="Group_1427" data-name="Group 1427" transform="translate(0 27.347)">
      <g id="Group_1420" data-name="Group 1420" transform="translate(0 37.192)">
        <g id="Group_1419" data-name="Group 1419">
          <path id="Path_1158" data-name="Path 1158" d="M19.51,225.173l-2.94,3.914a1.01,1.01,0,0,0-.2.623l.077,4.9a1.215,1.215,0,0,1-1.608,1.169L10.2,234.188a1.009,1.009,0,0,0-.655,0l-4.632,1.586a1.216,1.216,0,0,1-1.609-1.169l.078-4.9a1.011,1.011,0,0,0-.2-.623L.244,225.173a1.216,1.216,0,0,1,.616-1.892l4.678-1.439a1.012,1.012,0,0,0,.53-.385l2.815-4.006a1.216,1.216,0,0,1,1.989,0l2.815,4.006a1.01,1.01,0,0,0,.53.385l4.68,1.439A1.216,1.216,0,0,1,19.51,225.173Z" transform="translate(0 -216.934)" fill="#fddd45"/>
        </g>
        <path id="Path_1159" data-name="Path 1159" d="M33.068,248.844l-2.94,3.914a1.01,1.01,0,0,0-.2.623l.077,4.9a1.215,1.215,0,0,1-1.608,1.169l-4.632-1.586a1.01,1.01,0,0,0-.655,0l-4.632,1.586a1.216,1.216,0,0,1-1.609-1.169l.045-2.831A15.491,15.491,0,0,0,30.6,246.383l1.854.57a1.215,1.215,0,0,1,.614,1.891Z" transform="translate(-13.558 -240.606)" fill="#f8c52d"/>
      </g>
      <g id="Group_1422" data-name="Group 1422" transform="translate(15.17 0)">
        <g id="Group_1421" data-name="Group 1421">
          <path id="Path_1160" data-name="Path 1160" d="M96.838,35.585,93.9,39.5a1.01,1.01,0,0,0-.2.623l.077,4.9a1.215,1.215,0,0,1-1.608,1.169L87.533,44.6a1.009,1.009,0,0,0-.655,0l-4.632,1.586a1.216,1.216,0,0,1-1.609-1.169l.078-4.9a1.011,1.011,0,0,0-.2-.623l-2.941-3.914a1.216,1.216,0,0,1,.616-1.892l4.678-1.439a1.012,1.012,0,0,0,.53-.385l2.815-4.006a1.216,1.216,0,0,1,1.989,0l2.815,4.006a1.01,1.01,0,0,0,.53.385l4.68,1.439a1.216,1.216,0,0,1,.614,1.892Z" transform="translate(-77.329 -27.347)" fill="#fddd45"/>
        </g>
        <path id="Path_1161" data-name="Path 1161" d="M110.394,59.256l-2.94,3.914a1.01,1.01,0,0,0-.2.623l.077,4.9a1.215,1.215,0,0,1-1.608,1.169l-4.632-1.586a1.009,1.009,0,0,0-.655,0L95.8,69.858a1.216,1.216,0,0,1-1.609-1.169l.045-2.831A15.491,15.491,0,0,0,107.926,56.8l1.854.57a1.216,1.216,0,0,1,.614,1.891Z" transform="translate(-90.885 -51.018)" fill="#f8c52d"/>
      </g>
      <g id="Group_1424" data-name="Group 1424" transform="translate(80.686 37.192)">
        <g id="Group_1423" data-name="Group 1423">
          <path id="Path_1162" data-name="Path 1162" d="M430.815,225.173l-2.94,3.914a1.01,1.01,0,0,0-.2.623l.077,4.9a1.215,1.215,0,0,1-1.608,1.169l-4.632-1.586a1.009,1.009,0,0,0-.655,0l-4.632,1.586a1.216,1.216,0,0,1-1.609-1.169l.078-4.9a1.011,1.011,0,0,0-.2-.623l-2.941-3.914a1.216,1.216,0,0,1,.616-1.892l4.678-1.439a1.012,1.012,0,0,0,.53-.385l2.815-4.006a1.216,1.216,0,0,1,1.989,0l2.815,4.006a1.011,1.011,0,0,0,.53.385l4.68,1.439A1.216,1.216,0,0,1,430.815,225.173Z" transform="translate(-411.306 -216.934)" fill="#fddd45"/>
        </g>
        <path id="Path_1163" data-name="Path 1163" d="M444.371,248.844l-2.94,3.914a1.01,1.01,0,0,0-.2.623l.077,4.9a1.215,1.215,0,0,1-1.608,1.169l-4.632-1.586a1.01,1.01,0,0,0-.655,0l-4.632,1.586a1.216,1.216,0,0,1-1.609-1.169l.045-2.831a15.491,15.491,0,0,0,13.688-9.062l1.854.57a1.215,1.215,0,0,1,.614,1.891Z" transform="translate(-424.862 -240.606)" fill="#f8c52d"/>
      </g>
      <g id="Group_1426" data-name="Group 1426" transform="translate(65.517 0)">
        <g id="Group_1425" data-name="Group 1425">
          <path id="Path_1164" data-name="Path 1164" d="M353.489,35.585l-2.94,3.914a1.01,1.01,0,0,0-.2.623l.077,4.9a1.215,1.215,0,0,1-1.608,1.169L344.184,44.6a1.009,1.009,0,0,0-.655,0L338.9,46.186a1.216,1.216,0,0,1-1.609-1.169l.078-4.9a1.011,1.011,0,0,0-.2-.623l-2.941-3.914a1.216,1.216,0,0,1,.616-1.892l4.678-1.439a1.012,1.012,0,0,0,.53-.385l2.815-4.006a1.216,1.216,0,0,1,1.989,0l2.815,4.006a1.01,1.01,0,0,0,.53.385l4.68,1.439a1.216,1.216,0,0,1,.614,1.892Z" transform="translate(-333.98 -27.347)" fill="#fddd45"/>
        </g>
        <path id="Path_1165" data-name="Path 1165" d="M367.045,59.256l-2.94,3.914a1.01,1.01,0,0,0-.2.623l.077,4.9a1.215,1.215,0,0,1-1.608,1.169l-4.632-1.586a1.009,1.009,0,0,0-.655,0l-4.632,1.586a1.216,1.216,0,0,1-1.609-1.169l.045-2.831A15.491,15.491,0,0,0,364.577,56.8l1.854.57a1.215,1.215,0,0,1,.614,1.891Z" transform="translate(-347.536 -51.018)" fill="#f8c52d"/>
      </g>
    </g>
    <g id="Group_1432" data-name="Group 1432" transform="translate(20.542 38.145)">
      <g id="Group_1431" data-name="Group 1431">
        <g id="Group_1430" data-name="Group 1430">
          <g id="Group_1429" data-name="Group 1429">
            <g id="Group_1428" data-name="Group 1428">
              <path id="Path_1166" data-name="Path 1166" d="M163.294,107.339l-9.119,12.142a1.01,1.01,0,0,0-.2.623l.239,15.184a3.871,3.871,0,0,1-5.124,3.723l-14.366-4.919a1.011,1.011,0,0,0-.655,0L119.7,139.011a3.873,3.873,0,0,1-5.126-3.723l.241-15.184a1.01,1.01,0,0,0-.2-.623l-9.119-12.142a3.871,3.871,0,0,1,1.957-6.024l14.515-4.465a1.011,1.011,0,0,0,.53-.385l8.732-12.424a3.868,3.868,0,0,1,6.333,0l8.732,12.424a1.01,1.01,0,0,0,.53.385l14.514,4.465A3.871,3.871,0,0,1,163.294,107.339Z" transform="translate(-104.716 -82.394)" fill="#fca62f"/>
              <path id="Path_1167" data-name="Path 1167" d="M194.6,338.647a3.872,3.872,0,0,1-5.123,3.725l-14.694-5.031-14.694,5.031a3.874,3.874,0,0,1-5.126-3.725l.139-8.761a163.757,163.757,0,0,1,39.36,0Z" transform="translate(-145.107 -280.382)" fill="#31a7fb"/>
              <path id="Path_1168" data-name="Path 1168" d="M203.687,177.856,194.568,190a1.01,1.01,0,0,0-.2.623L194.6,205.8a3.871,3.871,0,0,1-5.124,3.723l-14.366-4.919a1.011,1.011,0,0,0-.655,0l-14.366,4.919a3.873,3.873,0,0,1-5.126-3.723l.057-3.6c27.189-4.935,37.505-22.607,41.145-32.084l5.56,1.711A3.871,3.871,0,0,1,203.687,177.856Z" transform="translate(-145.11 -152.911)" fill="#f98824"/>
            </g>
            <path id="Path_1169" data-name="Path 1169" d="M190.8,163.845l.172,10.926a1.01,1.01,0,0,1-1.338.972l-10.339-3.54a1.011,1.011,0,0,0-.655,0l-10.339,3.54a1.01,1.01,0,0,1-1.338-.972l.172-10.926a1.011,1.011,0,0,0-.2-.623l-6.563-8.74a1.01,1.01,0,0,1,.511-1.573l10.447-3.212a1.011,1.011,0,0,0,.53-.385l6.282-8.942a1.01,1.01,0,0,1,1.654,0l6.282,8.942a1.01,1.01,0,0,0,.53.385l10.445,3.212a1.011,1.011,0,0,1,.511,1.573L191,163.223A1.009,1.009,0,0,0,190.8,163.845Z" transform="translate(-149.288 -128.653)" fill="#fee265"/>
            <path id="Path_1170" data-name="Path 1170" d="M218.643,210.011l.172,10.926a1.01,1.01,0,0,1-1.338.972l-10.339-3.54a1.011,1.011,0,0,0-.655,0l-10.339,3.54a1.01,1.01,0,0,1-1.338-.972l.085-5.421c14.5-1.865,21.4-11.507,24.47-18.142l5.533,1.7a1.01,1.01,0,0,1,.511,1.572l-6.561,8.74A1.011,1.011,0,0,0,218.643,210.011Z" transform="translate(-177.133 -174.818)" fill="#f8c52d"/>
          </g>
        </g>
      </g>
    </g>
  </g>
</svg>
