<svg xmlns="http://www.w3.org/2000/svg" width="20.961" height="25.226" viewBox="0 0 20.961 25.226">
  <g id="profile" transform="translate(-44.799)">
    <g id="Group_1381" data-name="Group 1381" transform="translate(44.799)">
      <path id="Path_1001" data-name="Path 1001" d="M112.854,10.928c.819,2.684,2.922,5.474,5.759,5.474s4.945-2.789,5.759-5.474a2.562,2.562,0,0,0,1.514-1.847,2.236,2.236,0,0,0-1.042-2.742,4.224,4.224,0,0,0,.124-1.014c0-2.946-2.937-5.326-6.559-5.326s-6.568,2.385-6.568,5.326a4.515,4.515,0,0,0,.176,1.218,2.416,2.416,0,0,0-.676,2.542A2.563,2.563,0,0,0,112.854,10.928Zm-.438-3.422a.634.634,0,0,1,.376-.3.648.648,0,0,1,.1-.01.462.462,0,0,1,.081,0l.452.043.067-.447a7.06,7.06,0,0,1,.838-2.485,5.529,5.529,0,0,0,4.046,1.447c1.985,0,3.674-.747,4.3-1.794a6.91,6.91,0,0,1,1.057,2.832l.067.447.452-.043a.745.745,0,0,1,.181,0c.033,0,.052.029.086.038.409.181.619.9.443,1.614a1.489,1.489,0,0,1-1.033,1.2l-.314.043-.086.3c-.685,2.5-2.589,5.045-4.921,5.045s-4.236-2.537-4.912-5.045l-.086-.3-.314-.043a1.5,1.5,0,0,1-1.033-1.2A1.831,1.831,0,0,1,112.416,7.506Z" transform="translate(-108.08)" fill="#daaa53"/>
      <path id="Path_1002" data-name="Path 1002" d="M60.924,299.4a5.832,5.832,0,0,1-2.251,2.389c-1.928.985-3.36,1.785-3.36,1.785l0,0v-.024l-.024.01-.024-.01v.024l0,0s-1.433-.795-3.36-1.785a5.987,5.987,0,0,1-2.251-2.389c-2.851,1.157-4.845,3.827-4.845,6.149v4.826H65.76v-4.826C65.77,303.227,63.776,300.561,60.924,299.4Z" transform="translate(-44.799 -285.15)" fill="#daaa53"/>
    </g>
  </g>
</svg>
