<?xml version="1.0"?>
<svg xmlns="http://www.w3.org/2000/svg" xmlns:xlink="http://www.w3.org/1999/xlink" xmlns:svgjs="http://svgjs.com/svgjs" version="1.1" width="512" height="512" x="0" y="0" viewBox="0 0 256 256" style="enable-background:new 0 0 512 512" xml:space="preserve" class=""><g><path xmlns="http://www.w3.org/2000/svg" d="m57.935 147.827h-52.624c-1.553 0-2.811 1.259-2.811 2.811v85.651c0 1.553 1.259 2.811 2.811 2.811h52.624c1.553 0 2.811-1.259 2.811-2.811v-85.651c.001-1.553-1.258-2.811-2.811-2.811z" fill="#1387ce" data-original="#1387ce" style=""/><path xmlns="http://www.w3.org/2000/svg" d="m73.728 153.317h-12.981v78.921h12.982c1.553 0 2.811-1.259 2.811-2.811v-73.298c0-1.553-1.259-2.812-2.812-2.812z" fill="#c5e3ff" data-original="#c5e3ff" style=""/><path xmlns="http://www.w3.org/2000/svg" d="m186.174 55.119c-3.036-3.036-7.959-3.036-10.994 0l-9.176 9.176v-39.621c0-4.294-3.481-7.774-7.774-7.774-4.294 0-7.774 3.481-7.774 7.774v39.621l-9.176-9.176c-3.036-3.036-7.959-3.036-10.994 0-3.036 3.036-3.036 7.959 0 10.994l22.448 22.448c3.036 3.036 7.958 3.036 10.994 0l22.448-22.448c3.034-3.036 3.034-7.958-.002-10.994z" fill="#a0d85d" data-original="#a0d85d" style="" class=""/><path xmlns="http://www.w3.org/2000/svg" d="m252.266 177.212c-2.882-5.833-9.91-8.275-15.787-5.487-3.045 1.444 13.754-6.523-46.585 22.094 3.033-2.066 5.022-4.747 5.022-8.248 0-15.098-19.902-12.353-35.686-12.353-9.78 0-25.224-5.269-35.559-9.278-7.46-2.894-15.503-3.95-23.46-3.115l-23.666 2.484-.005 55.2 10.091-1.095c22.87-2.482 35.996 4.768 62.391 10.724 18.413 4.825 37.985 2.2 54.476-7.306l44.482-28.292c5.132-3.265 6.981-9.873 4.286-15.328z" fill="#f9c1a8" data-original="#f9c1a8" style="" class=""/><path xmlns="http://www.w3.org/2000/svg" d="m100.21 160.826c7.958-.835 16 .221 23.46 3.115 10.335 4.009 25.779 9.278 35.559 9.278 15.784 0 35.686-2.745 35.686 12.353 0 3.501-1.988 6.182-5.022 8.248l.032-.007 36.467-17.302c0-30.768 0-67.394 0-75.786 0-5.087-4.162-9.25-9.25-9.25-72.492 0-79.108 0-119.477 0-5.087 0-9.25 4.162-9.25 9.25v61.339z" fill="#d9af09" data-original="#9e4a25" style="" class=""/><g xmlns="http://www.w3.org/2000/svg" fill="#bf6132"><path d="m251.297 133.006-25.117-34.233c.137.63.213 1.282.213 1.951v15.243l16.841 22.954c1.627 2.219 4.753 2.714 6.989 1.074 2.227-1.633 2.708-4.763 1.074-6.989z" fill="#bfa232" data-original="#bf6132" style="" class=""/><path d="m88.417 100.724c0-.549.057-1.084.15-1.607l-24.864 33.889c-1.634 2.226-1.153 5.355 1.073 6.989 2.235 1.639 5.361 1.146 6.989-1.074l16.651-22.695c.001-7.323.001-12.865.001-15.502z" fill="#bfa232" data-original="#bf6132" style="" class=""/><path d="m217.143 91.475c-72.492 0-79.108 0-119.477 0-5.087 0-9.25 4.162-9.25 9.25l9.233 30.291c1.683 5.521 6.777 9.294 12.549 9.294h94.414c5.772 0 10.866-3.773 12.549-9.294l9.233-30.291c-.001-5.088-4.163-9.25-9.251-9.25z" fill="#bfa232" data-original="#bf6132" style="" class=""/><path d="m217.143 91.475c-72.492 0-79.108 0-119.477 0-5.087 0-9.25 4.162-9.25 9.25l9.233 30.291c1.683 5.521 6.777 9.294 12.549 9.294h94.414c5.772 0 10.866-3.773 12.549-9.294l9.233-30.291c-.001-5.088-4.163-9.25-9.251-9.25z" fill="#bfa232" data-original="#bf6132" style="" class=""/></g><path xmlns="http://www.w3.org/2000/svg" d="m57.935 241.601h-52.623c-2.929 0-5.312-2.382-5.312-5.311v-85.651c0-2.929 2.383-5.312 5.312-5.312h52.624c2.929 0 5.312 2.383 5.312 5.312v85.651c-.001 2.928-2.384 5.311-5.313 5.311zm-52.623-91.274c-.172 0-.312.14-.312.312v85.651c0 .171.14.311.312.311h52.624c.172 0 .312-.14.312-.311v-85.651c0-.172-.14-.312-.312-.312z" fill="#000000" data-original="#000000" style="" class=""/><path xmlns="http://www.w3.org/2000/svg" d="m73.728 234.738h-12.981c-1.381 0-2.5-1.119-2.5-2.5v-78.921c0-1.381 1.119-2.5 2.5-2.5h12.981c2.929 0 5.312 2.382 5.312 5.311v73.299c0 2.928-2.383 5.311-5.312 5.311zm-10.481-5h10.481c.172 0 .312-.14.312-.312v-73.299c0-.171-.14-.311-.312-.311h-10.481z" fill="#000000" data-original="#000000" style="" class=""/><path xmlns="http://www.w3.org/2000/svg" d="m167.474 233.03c-6.367 0-12.771-.818-19.086-2.473l-32.438-8.5c-9.508-2.491-19.28-3.217-29.05-2.156l-10.091 1.095c-.706.076-1.412-.151-1.939-.625-.528-.474-.83-1.15-.83-1.86l.004-55.2c0-1.28.966-2.353 2.239-2.486l23.666-2.484c8.339-.874 16.854.256 24.625 3.271 15.144 5.874 27.451 9.109 34.655 9.109 2.061 0 4.252-.049 6.371-.096 10.938-.246 22.249-.495 28.079 5.207 2.479 2.425 3.737 5.703 3.737 9.742 0 .686-.056 1.352-.167 1.999l38.157-18.104c7.069-3.352 15.636-.375 19.101 6.638 3.268 6.614 1.038 14.586-5.187 18.545l-44.482 28.292c-.031.02-.062.039-.093.057-11.514 6.635-24.31 10.029-37.271 10.029zm-71.863-18.602c7.275 0 14.51.933 21.606 2.792l32.438 8.5c17.874 4.685 36.533 2.188 52.547-7.027l44.436-28.262c4.065-2.586 5.521-7.792 3.388-12.112-2.263-4.581-7.861-6.527-12.475-4.335l-46.205 21.922c-3.371 2.282-8.138 4.061-14.284 5.325-9.321 1.917-18.476 1.938-18.861 1.938-1.38 0-2.5-1.119-2.5-2.5 0-1.38 1.119-2.5 2.499-2.5 8.876-.004 34.216-2.328 34.216-12.598 0-2.681-.73-4.698-2.232-6.167-4.327-4.231-14.567-4.004-24.472-3.783-2.146.048-4.366.097-6.482.097-10.006 0-25.352-5.138-36.463-9.448-7.034-2.728-14.742-3.752-22.295-2.959l-21.427 2.249-.004 50.163 7.321-.794c3.084-.334 6.171-.501 9.249-.501z" fill="#000000" data-original="#000000" style="" class=""/><path xmlns="http://www.w3.org/2000/svg" d="m189.922 196.313c-.987 0-1.913-.581-2.312-1.516-.469-1.099-.111-2.372.876-3.044 2.644-1.8 3.929-3.822 3.929-6.182 0-2.68-.73-4.697-2.232-6.167-4.326-4.231-14.567-4.004-24.472-3.783-2.146.048-4.366.097-6.482.097-10.006 0-25.352-5.138-36.463-9.448-7.034-2.728-14.745-3.751-22.295-2.959l-11.793 1.238c-.705.077-1.407-.154-1.934-.628s-.827-1.149-.827-1.858v-61.339c0-6.479 5.271-11.75 11.75-11.75h119.477c6.479 0 11.75 5.271 11.75 11.75v75.787c0 .965-.556 1.845-1.428 2.259l-36.467 17.302c-.176.083-.362.146-.553.187-.175.036-.35.054-.524.054zm-17.65-25.79c8.641 0 16.762.764 21.407 5.307 2.479 2.425 3.736 5.702 3.736 9.741 0 .685-.058 1.353-.174 2.003l26.651-12.645v-74.206c0-3.722-3.028-6.75-6.75-6.75h-119.475c-3.722 0-6.75 3.028-6.75 6.75v58.563l9.032-.948c8.337-.876 16.853.255 24.626 3.271 15.144 5.874 27.451 9.109 34.655 9.109 2.061 0 4.252-.049 6.371-.096 2.224-.049 4.465-.099 6.671-.099zm-72.062-9.697h.01z" fill="#000000" data-original="#000000" style="" class=""/><path xmlns="http://www.w3.org/2000/svg" d="m247.275 143.46c-2.31 0-4.589-1.06-6.057-3.061l-16.841-22.954c-.315-.429-.484-.947-.484-1.479v-15.243c0-.466-.052-.944-.156-1.421-.25-1.153.34-2.325 1.416-2.81 1.077-.485 2.345-.151 3.042.8l25.117 34.233c1.185 1.615 1.67 3.595 1.366 5.575s-1.361 3.723-2.976 4.908c-1.334.981-2.888 1.452-4.427 1.452zm-18.382-28.312 16.357 22.294c.815 1.113 2.384 1.352 3.496.537.538-.395.89-.976.991-1.636s-.061-1.32-.456-1.858l-20.388-27.789z" fill="#000000" data-original="#000000" style="" class=""/><path xmlns="http://www.w3.org/2000/svg" d="m67.725 143.46c-1.54 0-3.092-.471-4.426-1.449-1.616-1.186-2.673-2.929-2.977-4.909s.181-3.96 1.366-5.575l24.864-33.889c.688-.937 1.931-1.276 2.999-.819 1.069.457 1.681 1.59 1.478 2.735-.075.423-.111.806-.111 1.17v15.502c0 .532-.169 1.05-.484 1.479l-16.653 22.695c-1.467 2-3.747 3.06-6.056 3.06zm18.192-36.504-20.198 27.53c-.395.538-.557 1.198-.456 1.858.102.66.454 1.241.992 1.636 1.112.816 2.68.575 3.495-.537l16.167-22.035zm2.5 9.27h.01z" fill="#000000" data-original="#000000" style="" class=""/><path xmlns="http://www.w3.org/2000/svg" d="m204.612 142.809h-94.414c-6.919 0-12.923-4.447-14.94-11.065l-9.232-30.291c-.072-.236-.108-.482-.108-.729 0-6.479 5.271-11.75 11.75-11.75h119.477c6.479 0 11.75 5.271 11.75 11.75 0 .247-.037.493-.108.729l-9.232 30.291c-2.02 6.618-8.024 11.065-14.943 11.065zm-113.686-42.429 9.115 29.906c1.371 4.5 5.453 7.523 10.157 7.523h94.414c4.704 0 8.786-3.023 10.157-7.523l9.115-29.906c-.18-3.562-3.135-6.406-6.741-6.406h-119.476c-3.607.001-6.562 2.844-6.741 6.406zm135.467.345h.01z" fill="#000000" data-original="#000000" style="" class=""/><path xmlns="http://www.w3.org/2000/svg" d="m158.229 93.333c-2.631 0-5.262-1.001-7.265-3.005l-22.448-22.448c-4.016-4.014-4.016-10.514 0-14.53 4.006-4.005 10.525-4.006 14.53 0l4.909 4.908v-33.584c0-5.666 4.609-10.274 10.274-10.274s10.274 4.609 10.274 10.274v33.586l4.909-4.908c4.013-4.015 10.514-4.016 14.529 0 4.015 4.015 4.016 10.514 0 14.53l-22.448 22.447c-2.002 2.003-4.633 3.004-7.264 3.004zm-26.178-36.446c-2.061 2.061-2.062 5.398 0 7.458l22.448 22.448c.997.996 2.321 1.545 3.73 1.545s2.733-.549 3.729-1.545l22.448-22.448c2.06-2.06 2.063-5.397 0-7.458-2.059-2.06-5.398-2.061-7.458 0l-9.177 9.176c-.715.715-1.791.929-2.724.542-.935-.387-1.543-1.298-1.543-2.31v-39.621c0-2.908-2.366-5.274-5.274-5.274s-5.274 2.366-5.274 5.274v39.621c0 1.011-.609 1.923-1.543 2.31-.933.387-2.009.173-2.724-.542l-9.176-9.176c-2.059-2.057-5.405-2.056-7.462 0z" fill="#000000" data-original="#000000" style="" class=""/><path xmlns="http://www.w3.org/2000/svg" d="m204.612 142.809h-94.414c-6.919 0-12.923-4.447-14.94-11.065l-9.232-30.291c-.072-.236-.108-.482-.108-.729 0-6.479 5.271-11.75 11.75-11.75h119.477c6.479 0 11.75 5.271 11.75 11.75 0 .247-.037.493-.108.729l-9.232 30.291c-2.02 6.618-8.024 11.065-14.943 11.065zm-113.686-42.429 9.115 29.906c1.371 4.5 5.453 7.523 10.157 7.523h94.414c4.704 0 8.786-3.023 10.157-7.523l9.115-29.906c-.18-3.562-3.135-6.406-6.741-6.406h-119.476c-3.607.001-6.562 2.844-6.741 6.406zm135.467.345h.01z" fill="#000000" data-original="#000000" style="" class=""/></g></svg>
